<svg xmlns="http://www.w3.org/2000/svg" width="500" height="500" viewBox="0 0 65 65" shape-rendering="crispEdges"><path fill="#FFFFFF" d="M0 0h65v65H0z"/><path stroke="#000000" d="M2 2.5h7m5 0h4m1 0h3m1 0h2m5 0h3m1 0h3m2 0h1m1 0h1m1 0h1m1 0h3m2 0h1m2 0h2m1 0h7M2 3.5h1m5 0h1m2 0h1m1 0h2m1 0h3m3 0h4m1 0h1m1 0h3m2 0h5m3 0h1m1 0h2m1 0h1m2 0h1m2 0h2m1 0h1m5 0h1M2 4.5h1m1 0h3m1 0h1m1 0h1m1 0h2m1 0h4m1 0h1m1 0h1m1 0h4m2 0h4m3 0h1m1 0h1m2 0h2m2 0h4m1 0h4m1 0h1m1 0h3m1 0h1M2 5.5h1m1 0h3m1 0h1m1 0h1m1 0h4m2 0h1m1 0h3m1 0h1m2 0h1m1 0h1m3 0h4m1 0h1m1 0h2m3 0h1m4 0h1m1 0h1m1 0h1m1 0h1m1 0h3m1 0h1M2 6.5h1m1 0h3m1 0h1m1 0h3m5 0h1m1 0h1m1 0h2m2 0h1m1 0h8m2 0h1m1 0h2m4 0h2m4 0h2m2 0h1m1 0h3m1 0h1M2 7.5h1m5 0h1m1 0h1m2 0h1m2 0h3m1 0h1m3 0h1m1 0h1m1 0h3m3 0h3m1 0h1m1 0h1m3 0h2m3 0h4m3 0h1m5 0h1M2 8.5h7m1 0h1m1 0h1m1 0h1m1 0h1m1 0h1m1 0h1m1 0h1m1 0h1m1 0h1m1 0h1m1 0h1m1 0h1m1 0h1m1 0h1m1 0h1m1 0h1m1 0h1m1 0h1m1 0h1m1 0h1m1 0h1m1 0h1m1 0h1m1 0h7M10 9.5h1m1 0h4m1 0h2m3 0h4m3 0h2m3 0h1m1 0h1m2 0h1m2 0h1m1 0h3m1 0h1m5 0h1M2 10.5h1m1 0h5m3 0h1m1 0h1m1 0h5m1 0h1m1 0h1m5 0h5m2 0h3m1 0h1m2 0h2m1 0h2m1 0h3m1 0h1m1 0h5M3 11.5h2m1 0h1m2 0h1m1 0h1m1 0h1m3 0h3m1 0h8m2 0h2m1 0h1m7 0h3m4 0h1m1 0h1m1 0h1m1 0h3m1 0h1m1 0h1M2 12.5h1m2 0h1m2 0h6m1 0h7m2 0h1m1 0h1m2 0h3m2 0h1m1 0h3m1 0h2m6 0h1m1 0h1m1 0h4m2 0h1m1 0h1m1 0h1M2 13.5h2m2 0h2m5 0h1m3 0h2m1 0h2m3 0h1m1 0h2m2 0h2m4 0h1m3 0h2m2 0h2m5 0h2m2 0h4m1 0h2M6 14.5h1m1 0h3m1 0h3m1 0h5m2 0h5m1 0h1m3 0h2m3 0h2m4 0h2m1 0h4m1 0h1m1 0h1m1 0h1m3 0h1M3 15.5h2m1 0h2m1 0h3m1 0h2m1 0h1m3 0h2m1 0h2m3 0h1m2 0h2m1 0h2m5 0h1m2 0h2m3 0h3m1 0h1m2 0h3m1 0h1M4 16.5h1m1 0h3m1 0h6m4 0h2m1 0h2m2 0h1m2 0h1m1 0h2m2 0h2m1 0h2m1 0h2m1 0h2m1 0h5m2 0h1m4 0h3M3 17.5h2m2 0h1m1 0h2m1 0h3m1 0h2m1 0h1m1 0h1m3 0h1m2 0h2m2 0h2m4 0h2m1 0h2m1 0h1m2 0h1m2 0h1m2 0h2m1 0h1m2 0h1M5 18.5h1m1 0h3m1 0h2m2 0h2m2 0h3m1 0h3m1 0h1m3 0h1m4 0h3m1 0h4m2 0h4m3 0h7m2 0h1M5 19.5h2m2 0h3m3 0h2m1 0h4m2 0h1m3 0h8m2 0h2m1 0h1m2 0h2m1 0h1m2 0h2m4 0h1m2 0h2M3 20.5h1m3 0h5m3 0h1m1 0h2m1 0h2m5 0h1m1 0h2m5 0h1m3 0h4m1 0h2m1 0h2m2 0h1m2 0h1m3 0h1m1 0h2M4 21.5h2m3 0h1m2 0h2m1 0h1m5 0h2m1 0h2m2 0h1m3 0h2m5 0h1m1 0h1m2 0h3m1 0h3m3 0h1m1 0h1m1 0h1M3 22.5h3m2 0h3m1 0h1m3 0h5m1 0h1m3 0h2m1 0h2m3 0h4m2 0h1m3 0h1m1 0h3m1 0h1m1 0h1m1 0h1m2 0h1m2 0h3M7 23.5h1m2 0h1m1 0h2m4 0h1m2 0h1m2 0h1m4 0h3m7 0h1m1 0h1m3 0h5m3 0h1m2 0h1m1 0h2m2 0h1M2 24.5h1m1 0h1m2 0h3m2 0h2m1 0h2m2 0h1m1 0h4m3 0h6m1 0h4m3 0h1m1 0h1m1 0h1m3 0h3m1 0h1m1 0h2m2 0h1m1 0h1M5 25.5h3m2 0h1m3 0h1m1 0h2m1 0h1m4 0h1m2 0h2m1 0h1m1 0h2m3 0h1m1 0h2m1 0h1m1 0h1m1 0h3m3 0h2m3 0h2M3 26.5h3m2 0h2m1 0h1m1 0h1m1 0h3m2 0h2m1 0h1m2 0h2m2 0h1m2 0h1m1 0h2m1 0h1m2 0h1m2 0h2m3 0h2m1 0h1m6 0h1m1 0h2M2 27.5h3m4 0h1m3 0h2m4 0h1m1 0h1m3 0h1m1 0h4m3 0h1m4 0h1m2 0h1m1 0h3m3 0h1m2 0h1m2 0h4m1 0h1M3 28.5h3m1 0h2m1 0h1m2 0h1m3 0h1m1 0h4m6 0h3m2 0h5m2 0h1m2 0h2m1 0h1m1 0h5m5 0h1m2 0h1M3 29.5h1m1 0h3m1 0h1m1 0h1m4 0h1m1 0h1m1 0h2m2 0h2m1 0h2m2 0h3m5 0h2m1 0h2m1 0h2m2 0h1m1 0h2m2 0h2m2 0h1m1 0h1M4 30.5h1m1 0h5m4 0h2m1 0h7m4 0h10m1 0h2m1 0h1m3 0h1m1 0h2m1 0h1m1 0h5m1 0h3M2 31.5h1m1 0h3m3 0h3m2 0h1m1 0h5m3 0h6m3 0h2m3 0h1m2 0h4m1 0h1m1 0h3m2 0h1m3 0h2m1 0h1M2 32.5h2m1 0h2m1 0h1m1 0h2m2 0h3m3 0h1m2 0h1m6 0h1m1 0h1m1 0h1m1 0h3m1 0h2m1 0h1m1 0h10m1 0h1m1 0h2m2 0h1M3 33.5h1m1 0h2m3 0h1m2 0h1m4 0h4m2 0h2m1 0h2m1 0h1m3 0h3m3 0h5m1 0h2m3 0h1m1 0h2m3 0h2M5 34.5h6m1 0h3m4 0h2m1 0h1m2 0h1m1 0h1m2 0h5m2 0h3m3 0h1m1 0h1m2 0h4m2 0h5m1 0h3M4 35.5h2m5 0h2m2 0h1m3 0h5m2 0h1m1 0h1m4 0h1m1 0h1m1 0h1m3 0h2m1 0h3m2 0h3m1 0h3m1 0h1m3 0h2M3 36.5h1m1 0h4m1 0h1m3 0h1m2 0h1m1 0h5m1 0h3m1 0h2m1 0h1m3 0h2m1 0h3m1 0h1m1 0h5m2 0h3m1 0h1m2 0h1m1 0h2M4 37.5h1m2 0h1m2 0h1m1 0h3m5 0h3m2 0h2m1 0h2m3 0h1m1 0h1m2 0h1m2 0h2m7 0h2m6 0h2m1 0h2M3 38.5h2m1 0h3m2 0h3m2 0h1m1 0h1m1 0h1m4 0h1m3 0h4m1 0h3m2 0h1m3 0h2m1 0h1m2 0h1m3 0h7m1 0h2M3 39.5h1m1 0h1m1 0h1m3 0h1m1 0h2m4 0h1m1 0h1m2 0h1m1 0h1m1 0h1m4 0h1m1 0h1m2 0h1m2 0h4m2 0h1m1 0h3m1 0h3m1 0h1M3 40.5h1m1 0h2m1 0h3m1 0h1m3 0h1m2 0h6m1 0h1m2 0h1m1 0h2m1 0h1m1 0h1m2 0h2m4 0h2m1 0h3m1 0h3m1 0h1m2 0h1M3 41.5h3m3 0h1m1 0h1m1 0h1m1 0h3m1 0h2m1 0h1m1 0h3m3 0h2m1 0h1m5 0h1m1 0h1m2 0h2m1 0h1m7 0h1m6 0h1M2 42.5h1m2 0h1m2 0h2m1 0h1m1 0h4m1 0h2m2 0h1m2 0h2m2 0h2m1 0h1m1 0h5m1 0h3m1 0h1m1 0h5m1 0h2m1 0h2m3 0h1m1 0h1M2 43.5h1m3 0h1m2 0h1m3 0h1m1 0h4m2 0h1m2 0h1m1 0h1m2 0h3m3 0h2m1 0h1m1 0h2m2 0h1m1 0h1m2 0h1m1 0h1m5 0h2M5 44.5h4m1 0h1m2 0h1m4 0h3m1 0h1m2 0h2m2 0h7m1 0h1m4 0h1m1 0h1m1 0h1m1 0h1m1 0h1m1 0h3m1 0h1M2 45.5h1m1 0h1m2 0h1m2 0h1m6 0h2m2 0h1m1 0h1m2 0h3m1 0h1m9 0h1m1 0h1m1 0h5m5 0h2m1 0h2m2 0h1M4 46.5h1m2 0h2m1 0h1m1 0h1m2 0h2m3 0h5m1 0h2m1 0h1m1 0h4m1 0h3m2 0h1m5 0h4m1 0h3m3 0h2m1 0h2M15 47.5h5m2 0h1m2 0h1m1 0h1m5 0h1m1 0h1m3 0h1m1 0h2m2 0h1m1 0h1m2 0h3m1 0h2m1 0h1m3 0h1M3 48.5h2m1 0h1m1 0h2m1 0h1m2 0h1m1 0h1m4 0h1m4 0h2m1 0h1m1 0h1m1 0h3m1 0h2m1 0h1m4 0h1m1 0h2m3 0h1m1 0h6m2 0h1M3 49.5h5m1 0h1m1 0h1m2 0h2m2 0h1m3 0h2m1 0h2m1 0h6m1 0h1m1 0h1m2 0h3m1 0h3m1 0h1m2 0h1m1 0h2m1 0h1m4 0h2M2 50.5h1m1 0h3m1 0h2m1 0h2m1 0h2m4 0h4m3 0h1m3 0h1m3 0h2m1 0h2m3 0h1m3 0h4m4 0h1m1 0h6M2 51.5h2m3 0h1m2 0h4m2 0h11m1 0h1m3 0h1m6 0h1m1 0h1m1 0h4m2 0h1m1 0h1m3 0h1m3 0h3M4 52.5h7m1 0h1m1 0h3m1 0h3m1 0h1m2 0h2m5 0h1m1 0h1m1 0h1m1 0h1m1 0h2m3 0h1m1 0h4m1 0h2m2 0h1m1 0h2m2 0h1M2 53.5h3m1 0h1m5 0h3m2 0h1m1 0h3m1 0h1m1 0h3m2 0h2m1 0h5m1 0h1m1 0h4m1 0h3m2 0h1m2 0h1m4 0h1m1 0h2M2 54.5h4m2 0h2m1 0h2m1 0h1m1 0h3m4 0h2m2 0h1m1 0h7m2 0h1m4 0h3m3 0h2m2 0h6m1 0h1M10 55.5h1m3 0h1m1 0h1m2 0h1m3 0h4m1 0h1m1 0h1m3 0h2m1 0h1m6 0h3m2 0h3m2 0h1m3 0h1m3 0h1M2 56.5h7m5 0h1m1 0h6m1 0h1m1 0h4m1 0h1m1 0h1m1 0h1m1 0h2m1 0h5m3 0h2m3 0h1m1 0h1m1 0h1m1 0h5M2 57.5h1m5 0h1m1 0h1m6 0h1m2 0h2m1 0h2m1 0h1m2 0h2m3 0h2m2 0h2m1 0h2m1 0h1m2 0h2m5 0h1m3 0h1m1 0h2M2 58.5h1m1 0h3m1 0h1m1 0h3m2 0h1m2 0h2m2 0h3m1 0h2m1 0h6m5 0h1m2 0h1m5 0h2m1 0h8m1 0h1M2 59.5h1m1 0h3m1 0h1m1 0h1m1 0h1m1 0h1m2 0h1m2 0h2m1 0h1m1 0h2m3 0h3m1 0h2m5 0h1m1 0h3m4 0h1m3 0h3m1 0h1m3 0h1M2 60.5h1m1 0h3m1 0h1m1 0h2m1 0h1m1 0h2m1 0h1m3 0h1m1 0h1m2 0h3m3 0h1m2 0h5m1 0h1m2 0h1m1 0h3m1 0h3m3 0h1m1 0h1m2 0h1M2 61.5h1m5 0h1m2 0h1m2 0h1m1 0h3m2 0h1m1 0h2m3 0h5m1 0h1m3 0h2m1 0h2m1 0h2m1 0h1m6 0h5m3 0h1M2 62.5h7m1 0h3m2 0h3m1 0h1m3 0h2m1 0h3m3 0h2m1 0h3m2 0h1m2 0h1m2 0h5m1 0h2m6 0h3"/></svg>
