<svg xmlns="http://www.w3.org/2000/svg" width="500" height="500" viewBox="0 0 65 65" shape-rendering="crispEdges"><path fill="#FFFFFF" d="M0 0h65v65H0z"/><path stroke="#000000" d="M2 2.5h7m1 0h1m3 0h2m2 0h2m2 0h2m3 0h1m4 0h2m2 0h2m1 0h3m3 0h1m1 0h1m1 0h3m1 0h2m1 0h7M2 3.5h1m5 0h1m1 0h2m1 0h2m1 0h2m1 0h3m1 0h1m1 0h9m3 0h3m1 0h1m2 0h1m1 0h1m1 0h2m1 0h1m1 0h2m1 0h1m5 0h1M2 4.5h1m1 0h3m1 0h1m1 0h2m1 0h5m2 0h1m1 0h3m1 0h2m1 0h1m1 0h2m2 0h1m1 0h4m1 0h2m2 0h1m2 0h1m1 0h4m1 0h1m1 0h3m1 0h1M2 5.5h1m1 0h3m1 0h1m6 0h1m5 0h2m2 0h1m1 0h2m3 0h3m1 0h1m1 0h1m1 0h1m2 0h2m1 0h1m1 0h1m3 0h1m1 0h1m1 0h1m1 0h3m1 0h1M2 6.5h1m1 0h3m1 0h1m1 0h2m1 0h3m3 0h1m5 0h2m3 0h5m2 0h1m3 0h3m1 0h1m2 0h1m1 0h1m1 0h2m2 0h1m1 0h3m1 0h1M2 7.5h1m5 0h1m5 0h2m1 0h1m2 0h6m3 0h2m3 0h1m1 0h3m1 0h1m2 0h2m1 0h1m1 0h2m1 0h2m3 0h1m5 0h1M2 8.5h7m1 0h1m1 0h1m1 0h1m1 0h1m1 0h1m1 0h1m1 0h1m1 0h1m1 0h1m1 0h1m1 0h1m1 0h1m1 0h1m1 0h1m1 0h1m1 0h1m1 0h1m1 0h1m1 0h1m1 0h1m1 0h1m1 0h1m1 0h1m1 0h7M12 9.5h2m4 0h11m1 0h1m3 0h3m1 0h1m1 0h1m3 0h1m2 0h2m2 0h3M2 10.5h1m2 0h9m1 0h1m2 0h1m1 0h2m3 0h4m1 0h5m1 0h1m1 0h1m2 0h2m1 0h1m2 0h1m2 0h1m1 0h2m1 0h1m2 0h1m1 0h3M2 11.5h1m1 0h3m4 0h1m3 0h1m1 0h2m1 0h2m1 0h1m2 0h2m1 0h2m1 0h1m1 0h3m3 0h1m1 0h3m1 0h4m1 0h6m3 0h3M5 12.5h1m2 0h4m3 0h3m1 0h2m2 0h2m6 0h1m1 0h1m2 0h3m2 0h1m1 0h1m2 0h1m1 0h3m4 0h1m2 0h1m2 0h2M5 13.5h1m3 0h1m2 0h2m1 0h1m1 0h4m1 0h1m2 0h2m1 0h1m2 0h2m1 0h1m1 0h1m3 0h1m2 0h1m1 0h5m2 0h3m2 0h2m1 0h2M3 14.5h1m4 0h4m1 0h3m1 0h2m1 0h1m1 0h4m1 0h1m1 0h2m1 0h1m1 0h5m3 0h3m1 0h2m2 0h2m2 0h5m2 0h1M2 15.5h1m3 0h2m2 0h3m5 0h1m2 0h1m1 0h2m1 0h1m7 0h1m5 0h1m2 0h2m1 0h2m1 0h2m1 0h1m1 0h1m4 0h1M2 16.5h1m1 0h1m1 0h1m1 0h2m1 0h1m6 0h1m1 0h1m1 0h4m5 0h5m1 0h1m8 0h1m2 0h2m1 0h6m1 0h1m1 0h2M6 17.5h2m3 0h2m1 0h1m4 0h3m1 0h2m1 0h1m5 0h2m4 0h1m5 0h1m1 0h1m1 0h1m1 0h2m3 0h1m2 0h1m1 0h1m1 0h1M3 18.5h2m3 0h2m2 0h1m4 0h2m1 0h1m1 0h1m1 0h1m1 0h1m2 0h1m2 0h1m3 0h2m5 0h2m7 0h6m1 0h1m1 0h2M3 19.5h1m3 0h1m5 0h1m2 0h2m2 0h2m1 0h1m4 0h1m1 0h1m1 0h3m1 0h3m4 0h1m4 0h1m1 0h1m1 0h4m5 0h1M4 20.5h2m1 0h2m2 0h1m2 0h1m6 0h1m8 0h1m2 0h2m1 0h2m4 0h1m1 0h1m5 0h1m3 0h1m1 0h1m2 0h2m1 0h1M2 21.5h1m1 0h4m1 0h4m4 0h1m1 0h1m1 0h3m1 0h1m1 0h1m1 0h1m2 0h1m2 0h1m7 0h5m5 0h2m1 0h2m1 0h1m2 0h1M2 22.5h4m2 0h2m1 0h1m4 0h2m3 0h3m2 0h1m1 0h3m1 0h4m1 0h3m1 0h2m4 0h1m2 0h2m4 0h1m4 0h1M5 23.5h3m5 0h1m1 0h4m1 0h1m1 0h2m2 0h1m1 0h1m1 0h2m1 0h1m2 0h1m2 0h2m5 0h1m1 0h2m4 0h2m2 0h2M2 24.5h1m2 0h1m2 0h1m1 0h3m1 0h3m2 0h2m1 0h1m2 0h1m1 0h4m1 0h1m1 0h2m2 0h1m4 0h3m1 0h1m2 0h1m1 0h1m1 0h4m1 0h1m1 0h1M2 25.5h2m1 0h1m3 0h1m3 0h1m1 0h5m4 0h2m1 0h2m1 0h2m3 0h2m2 0h1m1 0h2m2 0h1m4 0h3m1 0h2m1 0h1m1 0h2M2 26.5h4m1 0h2m1 0h3m1 0h2m1 0h2m2 0h4m1 0h1m1 0h4m1 0h3m1 0h1m1 0h1m1 0h3m1 0h1m2 0h5m1 0h2m1 0h1m1 0h1m2 0h1M2 27.5h1m3 0h2m4 0h3m1 0h1m1 0h1m1 0h1m1 0h1m1 0h1m1 0h5m1 0h2m4 0h2m1 0h1m7 0h3m1 0h2m1 0h3m1 0h2M3 28.5h1m2 0h1m1 0h2m1 0h3m2 0h1m1 0h10m1 0h4m1 0h2m2 0h5m1 0h3m1 0h1m4 0h1m4 0h2m2 0h1M2 29.5h2m1 0h1m1 0h1m4 0h5m1 0h1m2 0h1m4 0h3m2 0h2m3 0h1m1 0h2m1 0h3m1 0h1m1 0h3m1 0h1m2 0h4m2 0h2M4 30.5h7m3 0h2m3 0h1m5 0h2m1 0h11m2 0h1m4 0h2m2 0h1m2 0h6m1 0h2M6 31.5h1m3 0h3m1 0h1m1 0h4m1 0h1m1 0h2m2 0h1m2 0h1m3 0h6m2 0h1m1 0h2m2 0h1m1 0h2m2 0h1m3 0h1m1 0h1m1 0h1M3 32.5h2m1 0h1m1 0h1m1 0h4m2 0h3m4 0h1m1 0h4m1 0h1m1 0h1m1 0h4m1 0h1m2 0h1m4 0h1m2 0h1m2 0h2m1 0h1m1 0h2m1 0h1M4 33.5h3m3 0h1m1 0h4m2 0h1m3 0h2m1 0h2m2 0h2m3 0h1m7 0h1m1 0h2m6 0h1m1 0h1m3 0h1m2 0h2M2 34.5h1m1 0h7m6 0h1m4 0h1m2 0h1m1 0h1m2 0h6m1 0h2m1 0h1m1 0h2m5 0h2m2 0h8m1 0h1M2 35.5h6m2 0h1m1 0h2m2 0h1m1 0h2m1 0h1m1 0h2m1 0h2m1 0h6m1 0h2m6 0h2m1 0h6m1 0h2m1 0h3m1 0h2M5 36.5h2m1 0h2m1 0h2m1 0h5m1 0h3m1 0h2m1 0h1m2 0h1m3 0h1m1 0h1m2 0h3m3 0h1m1 0h2m4 0h5m2 0h1m1 0h1M2 37.5h6m1 0h1m1 0h2m4 0h2m2 0h2m1 0h3m2 0h5m3 0h2m4 0h1m4 0h2m4 0h2m1 0h2m1 0h1M2 38.5h2m2 0h3m5 0h3m1 0h1m5 0h1m3 0h1m2 0h1m1 0h1m1 0h3m1 0h1m2 0h2m1 0h4m1 0h3m1 0h2m3 0h2m1 0h1M2 39.5h2m3 0h1m1 0h2m1 0h1m1 0h1m1 0h3m2 0h2m3 0h2m1 0h1m1 0h2m1 0h1m4 0h1m6 0h1m1 0h1m1 0h2m6 0h2m2 0h1M2 40.5h1m3 0h5m1 0h2m1 0h1m2 0h3m1 0h1m2 0h2m4 0h1m5 0h2m4 0h2m3 0h2m3 0h1m3 0h1m1 0h4M2 41.5h1m1 0h1m1 0h1m2 0h1m2 0h1m3 0h1m1 0h7m1 0h1m2 0h2m1 0h1m2 0h2m1 0h3m1 0h3m2 0h1m3 0h5m2 0h3m1 0h1M4 42.5h1m1 0h1m1 0h1m2 0h5m2 0h3m1 0h7m1 0h2m3 0h2m1 0h1m2 0h3m1 0h3m1 0h3m1 0h1m1 0h1m2 0h1m1 0h3M4 43.5h1m1 0h2m3 0h1m1 0h1m1 0h1m1 0h1m2 0h1m1 0h1m11 0h1m1 0h2m1 0h1m2 0h1m4 0h1m5 0h2m1 0h3m1 0h2M2 44.5h12m3 0h3m1 0h1m1 0h3m1 0h4m1 0h1m1 0h3m1 0h2m3 0h1m3 0h2m1 0h2m1 0h1m1 0h3m2 0h1m1 0h1M5 45.5h1m6 0h2m1 0h3m1 0h1m1 0h1m1 0h1m1 0h1m2 0h1m4 0h1m1 0h1m1 0h1m3 0h2m1 0h1m1 0h1m1 0h4m1 0h2m1 0h1m1 0h2M2 46.5h4m1 0h3m5 0h1m3 0h3m1 0h1m2 0h1m2 0h3m3 0h1m3 0h1m1 0h2m1 0h2m2 0h1m1 0h4m2 0h1m1 0h2m1 0h1M5 47.5h1m1 0h1m3 0h2m2 0h3m4 0h1m1 0h5m6 0h3m1 0h3m2 0h5m1 0h1m1 0h2m6 0h3M2 48.5h3m3 0h2m3 0h1m1 0h2m2 0h3m2 0h3m3 0h1m2 0h1m1 0h3m2 0h2m1 0h2m2 0h1m1 0h1m1 0h1m3 0h2m1 0h2m1 0h1M5 49.5h2m3 0h3m1 0h1m2 0h4m1 0h1m1 0h1m2 0h2m3 0h2m1 0h1m1 0h1m2 0h1m2 0h5m1 0h1m1 0h1m3 0h3m4 0h1M2 50.5h3m1 0h1m1 0h1m4 0h1m1 0h1m1 0h1m1 0h4m4 0h2m1 0h4m1 0h1m2 0h1m1 0h1m1 0h1m2 0h3m2 0h4m4 0h1m1 0h3M2 51.5h1m1 0h3m2 0h5m6 0h3m1 0h1m1 0h1m1 0h3m2 0h3m2 0h1m1 0h1m1 0h3m2 0h1m1 0h1m2 0h2m1 0h1m1 0h2m1 0h2M4 52.5h5m1 0h1m1 0h1m1 0h1m2 0h1m3 0h1m1 0h2m1 0h2m1 0h2m2 0h1m4 0h3m1 0h1m4 0h1m1 0h4m1 0h1m1 0h1m2 0h2M2 53.5h3m1 0h1m2 0h2m4 0h1m3 0h2m1 0h2m1 0h1m1 0h2m5 0h1m1 0h2m1 0h2m10 0h2m1 0h1m5 0h3M2 54.5h4m2 0h1m1 0h3m1 0h1m2 0h2m1 0h2m1 0h1m6 0h5m2 0h2m5 0h3m3 0h1m1 0h1m1 0h6m1 0h2M10 55.5h5m1 0h3m6 0h3m1 0h2m3 0h1m5 0h3m1 0h5m1 0h2m2 0h1m3 0h4M2 56.5h7m1 0h2m3 0h1m2 0h2m1 0h3m2 0h1m1 0h3m1 0h1m1 0h1m1 0h1m4 0h1m1 0h1m1 0h3m1 0h1m1 0h1m2 0h1m1 0h1m1 0h3m1 0h1M2 57.5h1m5 0h1m1 0h1m2 0h2m1 0h1m1 0h2m1 0h1m2 0h1m2 0h1m2 0h1m3 0h1m4 0h1m2 0h1m2 0h1m1 0h2m4 0h2m3 0h1M2 58.5h1m1 0h3m1 0h1m1 0h2m1 0h2m2 0h3m1 0h2m1 0h1m2 0h1m2 0h5m2 0h2m2 0h1m3 0h1m1 0h3m1 0h1m2 0h8M2 59.5h1m1 0h3m1 0h1m1 0h4m3 0h1m1 0h1m1 0h2m2 0h2m3 0h1m1 0h2m2 0h1m1 0h1m9 0h1m3 0h2m1 0h6m1 0h1M2 60.5h1m1 0h3m1 0h1m6 0h1m2 0h1m1 0h2m3 0h2m1 0h2m3 0h2m2 0h1m1 0h3m7 0h7m1 0h3m1 0h2M2 61.5h1m5 0h1m7 0h1m1 0h2m3 0h1m2 0h1m2 0h3m2 0h2m1 0h1m1 0h1m4 0h1m2 0h5m1 0h2m1 0h2m1 0h4M2 62.5h7m1 0h1m1 0h1m1 0h4m1 0h1m2 0h1m1 0h7m1 0h1m1 0h3m2 0h1m3 0h1m1 0h3m1 0h1m1 0h1m1 0h3m1 0h2m3 0h1"/></svg>
