<svg xmlns="http://www.w3.org/2000/svg" xmlns:xlink="http://www.w3.org/1999/xlink" version="1.1" x="0px" y="0px" viewBox="-180 272 250 312.5" style="enable-background:new -180 272 250 250;" xml:space="preserve"><path d="M-9.1,418.7h-25.6v-53c0-2.4-0.4-4.3-1.1-5.9l5.6-2.4c0.8-0.4,1.2-1.3,0.8-2.1c-0.4-0.8-1.3-1.2-2.1-0.8l-6,2.6  c-4.6-5.6-13.8-5.6-17.5-5.6c-3.7,0-12.9,0-17.5,5.6l-6-2.6c-0.8-0.4-1.8,0-2.1,0.8c-0.4,0.8,0,1.7,0.8,2.1l5.6,2.4  c-0.7,1.6-1.1,3.6-1.1,5.9c0,19,5.7,37.4,16.1,53h-41.6c-0.9,0-1.6,0.8-1.6,1.6c0,0.9,0.8,1.6,1.6,1.6h44c4,5.4,8.5,10.5,13.5,15  l5.9,5.3c0.3,0.3,0.7,0.4,1.1,0.4c0.2,0,0.5-0.1,0.7-0.2c0.6-0.2,1-0.8,1-1.4v-19.1h25.6c0.9,0,1.6-0.8,1.6-1.6  C-7.5,419.3-8.2,418.7-9.1,418.7z M-48.7,392.3c0-4.3,1.2-7.8,3.7-10.3c1.7-1.7,4.1-3,7.1-3.7v37.5C-43.6,411-48.7,400.8-48.7,392.3  z M-38,365.6c0,4.2-3.4,7.6-7.7,7.6c-3.7,0-6.8-2.6-7.5-6l4.6-2c0,0.2-0.1,0.2-0.1,0.4c0,1.6,1.3,2.9,3,2.9c1.7,0,3-1.3,3-2.9  c0-1-0.5-1.8-1.2-2.4l4.6-2C-38.5,362.5-38,364-38,365.6z M-55,354.6c6.9,0,11.6,1.2,14.3,3.7l-14.3,6.2l-14.3-6.2  C-66.6,355.8-61.9,354.6-55,354.6z M-70.6,361.3l4.6,2c-0.8,0.5-1.2,1.4-1.2,2.4c0,1.6,1.3,2.9,3,2.9c1.6,0,3-1.3,3-2.9  c0-0.2,0-0.2-0.1-0.4l4.6,2c-0.8,3.4-3.8,6-7.5,6c-4.3,0-7.7-3.4-7.7-7.6C-72,364-71.5,362.5-70.6,361.3z M-71.7,373.7  c2,1.7,4.5,2.8,7.3,2.8c4,0,7.4-2.1,9.4-5.2c1.9,3.1,5.4,5.2,9.4,5.2c3,0,5.7-1.2,7.7-3.1v1.7c-3.9,0.8-7.1,2.4-9.4,4.7  c-3,3-4.6,7.4-4.6,12.5c0,6.2,2.4,13.6,6.3,19.6c1.8,2.8,3.9,5.1,5.9,6.8h-15.6C-64.5,405.4-70.2,389.9-71.7,373.7z M-38,437.4  l-3.2-2.9c-4.3-3.9-8.2-8.1-11.7-12.6H-38V437.4z"/></svg>