<svg xmlns="http://www.w3.org/2000/svg" xmlns:xlink="http://www.w3.org/1999/xlink" version="1.1" x="0px" y="0px" viewBox="-180 272 250 312.5" style="enable-background:new -180 272 250 250;" xml:space="preserve"><path d="M-54.3,430.2c4.4,2.1,8.7,8.4,12.2,13.2c1.3,1.9,4.3,1.1,4.6-1.1c0.9-6.6,2.6-15.8,3.3-18.2c2.1-6.9,5.3-21.1-5.9-30.9l0,0  c-1.6-1.4-2.3-3.6-1.6-5.5c0.6-1.7,1-3.7,0.9-6.2c-0.1-2.9-1.3-5.1-2.4-7c-1.6-2.7-3-5.3,0.4-8.4c0.5-0.4,0.2-1.1-0.4-1.1  c-5.4,0.5-6.3,3-6.3,3c-0.1-0.2-1.3-0.7-2.9-1.1c-8.4-1.9-15,0.8-15,0.8c0-0.6-0.9-1.3-2.3-1.8c-1.1-0.5-2.3-0.7-3.4-0.7  c-0.5,0-0.8,0.7-0.5,1.1c0.7,0.8,1.2,1.7,1.6,2.7c0.8,1.9,0.5,4.1-0.6,5.8c-1.7,2.5-3.3,10-0.6,14.5c0.8,1.4,0.8,3.2,0.2,4.7  c-0.1,0.2-0.2,0.3-0.2,0.5c-1.9,4.3-2.1,16.1,3.4,22.5C-66.9,420.3-60.5,427.1-54.3,430.2z M-57.8,395.6c-2.3,0-8.7-0.7-11.9-6.6  c-2-3.4-2.1-7.7-0.4-11.2c1.1-2.4,3.3-4,5.9-4.5c3.1-0.4,5.2,1.7,6.5,3.5c1.3-1.8,3.3-3.9,6.5-3.5c2.6,0.5,4.8,2.1,5.9,4.5  c1.7,3.6,1.6,7.8-0.4,11.2C-49.1,394.9-55.5,395.5-57.8,395.6z"/><path d="M-52.2,378.8c1.5,0,2.8,1.2,2.8,2.8s-1.3,2.8-2.8,2.8s-2.8-1.2-2.8-2.8S-53.7,378.8-52.2,378.8z"/><path d="M-63.5,378.8c1.5,0,2.8,1.2,2.8,2.8s-1.3,2.8-2.8,2.8c-1.5,0-2.8-1.2-2.8-2.8C-66.2,380.1-65,378.8-63.5,378.8z"/><path d="M-57,385.4c0.4,0.5,0.4,1.5,0,2.1l-0.8,1.3l-0.8-1.3c-0.4-0.5-0.4-1.5,0-2.1C-58.2,384.7-57.5,384.7-57,385.4z"/><path d="M-55,349.5c22,0,39.9,17.9,39.9,40c0,12.5-5.9,23.8-14.9,31.2c0.6-2.9,1-5.5,1.1-8c5.5-6.2,8.8-14.3,8.8-23.2  c0-19.2-15.7-34.9-34.8-34.9s-34.8,15.7-34.8,34.9c0,13.6,7.8,25.4,19.1,31.1c2.2,2.4,5.2,5.5,8.6,8.2  c-18.6-3.4-32.8-19.8-32.8-39.3C-94.9,367.4-76.9,349.5-55,349.5z"/><text x="-180" y="537" fill="#000000" font-size="5px" font-weight="bold" font-family="'Helvetica Neue', Helvetica, Arial-Unicode, Arial, Sans-serif">Created by IronSV</text><text x="-180" y="542" fill="#000000" font-size="5px" font-weight="bold" font-family="'Helvetica Neue', Helvetica, Arial-Unicode, Arial, Sans-serif">from the Noun Project</text></svg>