<svg xmlns="http://www.w3.org/2000/svg" xmlns:xlink="http://www.w3.org/1999/xlink" version="1.1" x="0px" y="0px" viewBox="0 0 100 125" style="enable-background:new 0 0 100 100;" xml:space="preserve"><style type="text/css">
	.st0{fill-rule:evenodd;clip-rule:evenodd;}
</style><g><path class="st0" d="M32.43,30.04C32.43,30.04,32.43,30.04,32.43,30.04c1.86-5.89,10.11-11.83,17.57-6.81   c7.46-5.02,15.72,0.92,17.57,6.8c1.2,4.23-2.55,5.98-5.34,6.72c-2.6,0.89-4.93,1.71-7.01,2.45c0.78,6.11,0.88,9.61,0.37,12.22   c-2.26,0.85-4.1,1.2-5.58,1.23c-1.49-0.04-3.33-0.38-5.58-1.23c-0.51-2.61-0.41-6.12,0.37-12.22c-2.08-0.74-4.42-1.56-7.01-2.45   C34.98,36.01,31.23,34.26,32.43,30.04c-0.04,0.11-0.08,0.21-0.12,0.32C32.35,30.25,32.39,30.14,32.43,30.04L32.43,30.04   L32.43,30.04z M50,80.5c-2.48-1.48-4.15-4.57-6.51-8.86c-0.06,1.38-0.06,2.68,0.12,3.87c-2.3-2.57-3.8-5.24-2.9-6.02   c3.5-2.99,6.93-4.08,9.29-4.54c2.36,0.46,5.79,1.55,9.29,4.54c0.91,0.77-0.6,3.45-2.9,6.02c0.18-1.19,0.18-2.48,0.12-3.87   C54.15,75.93,52.48,79.02,50,80.5L50,80.5z M50,11.89c-1.98-8.6-9.84-14.13-26.51-3.73c10.84,4.76-8.77,1.15-14.02,16.18   c13.71,0.23-4.82,0.72-3.77,19.63c16.03-11.4-6.81,11.14,6.15,26.1c2.91-22.57,4.63,12.98,17.47,14.88   c-0.97-3.93-1.41-7.63-1.29-11.11C34.33,91.25,43.12,87.3,50,97.5c6.88-10.2,15.67-6.25,21.98-23.66   c0.11,3.48-0.32,7.18-1.29,11.11c12.84-1.9,14.56-37.45,17.47-14.88c12.96-14.96-9.88-37.49,6.15-26.1   c1.04-18.9-17.48-19.4-3.77-19.63C85.28,9.31,65.68,12.92,76.51,8.16C59.84-2.24,51.98,3.3,50,11.89L50,11.89z M55.56,64.12   c4.03,1.82,8.05,3.59,8.79-1.11c1.68,0.45,3.56,1.02,5.65,1.71c-6.49-5.09-9.49-7.09,0.38-3.81c-6.18-4.84-8.68-2.72-7.1-12.02   c0.37,2.23,0.84,4.19,1.39,5.87c7.83-1.7,8.41-9.13,5.6-14.41c-1.81-2.74-3.97-2.13-5.06-1.47c-0.99,3.75-3.53,4.79-7.6,3.12   c-1.71,6.29-1.04,6.58-1.48,9.8c-0.71,2.65-2.06,4.08-4.07,4.91c-0.61,0.37-1.01,0.73-1.01,1.18v2.78c0,0.87,1.11,1.8,2.56,2.57   C54.22,63.58,54.89,63.87,55.56,64.12L55.56,64.12z M70.27,40.37c-0.11-0.19-0.22-0.38-0.32-0.57   C70.06,39.98,70.16,40.17,70.27,40.37L70.27,40.37z M68.98,38.14c-0.46-0.71-0.97-1.35-1.61-1.77   C67.96,36.76,68.5,37.41,68.98,38.14L68.98,38.14z M68.35,33.32c-0.04-1.06-0.36-2.19-0.78-3.28   C67.97,31.14,68.3,32.27,68.35,33.32L68.35,33.32z M67.79,24.34c4.5-3.93,3.23,3.2,3.13,6.39c4.11-6.22,3.41-15.48-5.67-9.6   C66.29,22.4,67.14,23.47,67.79,24.34L67.79,24.34z M35.33,54.77c0.55-1.68,1.01-3.64,1.39-5.87c1.58,9.3-0.92,7.17-7.1,12.02   c11.18-3.71,5.32-0.07,0.38,3.81c2.09-0.69,3.97-1.27,5.65-1.71c0.75,4.69,4.76,2.93,8.79,1.11c0.67-0.25,1.34-0.54,1.95-0.87   c1.45-0.77,2.56-1.7,2.56-2.57v-2.78c0-0.45-0.4-0.8-1.01-1.18c-2.01-0.83-3.36-2.26-4.07-4.91c-0.44-3.22,0.23-3.51-1.48-9.8   c-4.07,1.67-6.6,0.63-7.6-3.12c-1.1-0.67-3.26-1.27-5.06,1.47C26.92,45.64,27.5,53.08,35.33,54.77L35.33,54.77z M29.73,40.37   c0.1-0.19,0.21-0.39,0.32-0.57C29.95,39.99,29.84,40.18,29.73,40.37L29.73,40.37z M31.81,32.06c0.01-0.07,0.03-0.14,0.05-0.21   C31.84,31.92,31.83,31.99,31.81,32.06L31.81,32.06z M32.09,31c0.04-0.14,0.09-0.29,0.14-0.43C32.18,30.71,32.14,30.85,32.09,31   L32.09,31z M29.07,30.74c-0.09-3.19-1.37-10.33,3.13-6.39c0.66-0.88,1.5-1.95,2.53-3.21C25.66,15.26,24.97,24.52,29.07,30.74   L29.07,30.74z M40.18,39.51l-1.27,1.05l-0.99-1.95c-0.39-0.15-0.77-0.29-1.16-0.44c-0.23,3.28,3.44,4.17,4.76,1.89   C41.07,39.88,40.62,39.69,40.18,39.51L40.18,39.51z M59.82,39.51c-0.45,0.18-0.89,0.37-1.34,0.55c1.32,2.28,4.99,1.39,4.76-1.89   c-0.38,0.14-0.77,0.29-1.16,0.44l-0.99,1.95L59.82,39.51z"/></g></svg>