<svg xmlns="http://www.w3.org/2000/svg" xmlns:xlink="http://www.w3.org/1999/xlink" version="1.1" x="0px" y="0px" viewBox="0 0 100 125" style="enable-background:new 0 0 100 100;" xml:space="preserve"><g><path d="M60.6,26.9c-0.1-0.8-0.2-3.5,1.6-6.2c2-3,5-3.8,5.7-4c-2.5-0.5-4.6-0.5-5.8-0.4c-1.7,0.1-2.7,0.5-3.5,0.9   c-0.7,0.4-1.2,0.7-1.5,1c-1-0.6-2.9-1.4-5.3-1.3c-1.4,0.1-4,0.2-5.5,2.2c-1.1,1.4-1,3.1-0.9,3.8c0.1-0.2,2.4-2.9,5.9-2.6   c2.4,0.2,4.7,1.8,5.5,4.3c0.9,2.7-0.5,5-0.7,5.3c1-0.3,2.4-0.6,4.2-0.5c1.9,0.1,3.3,0.5,4.3,0.9c-2.5,1.9-5,3.8-7.4,5.6   c1.8,0.5,3.8,1.1,5.9,1.9c2.4,0.9,4.4,1.9,6.2,2.9c-1.8-0.1-3.8-0.2-5.9-0.1c-2.3,0-4.5,0.2-6.4,0.4c2.5,2.3,5.4,5.3,8.1,8.9   c1.8,2.4,3.3,4.7,4.5,6.8c-1.1,0-3.4-0.1-5.8-1.4c-3.2-1.8-4.6-4.6-5-5.5c-2.2,4.2-3.1,7.6-3.4,10c-0.2,1.6-0.4,4.1-1.6,7.4   c-0.5,1.5-1.1,2.6-1.5,3.4c-1.6-3.4-1.7-6.1-1.6-7.7c0.1-2.4,1-5.9,2.9-8.8c0.5-0.7,1.4-1.9,2-3.9c0.5-1.3,0.6-2.4,0.7-3.2   c-1.1,1.3-2.1,2.3-2.9,3c0,0-1.1,0.9-3.5,2.1c-0.2,0.1-0.5,0.3-0.7,0.1c-0.3-0.2,0-1.1,0.2-1.7c0.9-2.2,1.8-3.5,2.3-4.6   c0.5-1,0.7-2,1.2-4c0.5-2,0.9-5.1,0.7-9.1c-2.2,6.3-5.1,10.6-7.4,13.4c-5.3,6.5-9.5,10.3-9.5,10.3c-1.2,1.1-3.2,2.9-5.1,5.9   c-1.2,1.9-1.9,3.6-2.3,4.8c1.9-1.7,4.3-3.6,7.3-5.4c2.4-1.5,4.7-2.6,6.7-3.5c-1.2,5-0.3,8.6,0.2,10.3c1.2,3.4,3.3,5.9,5.6,8.7   c1.3,1.6,2.6,2.8,3.5,3.6c1.1-1.2,2.7-3,3.9-5.7c1-2.2,1.1-3.7,1.9-7.4c0.4-1.9,1.1-4.6,2-8c1.2,0.3,2.9,0.8,5,1.7   c3.3,1.3,5.2,2.1,6.8,3.8c0.8,0.8,2.9,3.2,3.1,8.1c1.5-5.4,0.8-9.3,0.2-11.5c-0.6-2.2-1.7-4.1-3.9-7.8c-2-3.4-3.8-6.2-5.2-8.1   c2.4-0.1,5.6,0,9.2,0.8c4.5,1,7.9,2.8,10.2,4.2c-1.4-2.5-4.2-6.6-9-10.3c-4.8-3.6-9.4-5.1-12.2-5.8c1.2-1.1,2.9-2.5,5.3-3.7   c2.8-1.4,5.4-1.9,7.2-2.1c-2.2-1-5.4-2.1-9.4-2.5C64.9,26.5,62.5,26.6,60.6,26.9z"/><path d="M48.1,30.1c1.6,1,3.6,0.9,4.6-0.2c0.7-0.8,0.9-1.9,0.7-2.8c-0.4-1.5-2-2.5-2.4-2.7c-0.7-0.4-1.2-0.5-1.4-0.9   c-0.2-0.5,0.4-1.2,0.9-1.7c-0.6,0.2-2.3,0.7-3.6,2.5c-0.8,1.1-1,2.2-1.1,2.8c0.9,0.1,1.8,0.1,2.7,0.2   C48.5,28.3,48.3,29.2,48.1,30.1z"/><path d="M30.4,29c0-0.4,0.1-1,0.5-1.4c0.5-0.5,1.1-0.5,1.8-1c0.3-0.2,0.7-0.7,1-1.4c-0.5,0.1-1.2,0.4-2.1,0.6   c-2.6,0.8-3.9,1.3-4.8,2.1c-0.5,0.5-1.3,1.3-1.8,2.9c1.2-0.7,2.4-1.4,3.6-2c0,0.3-0.1,0.6-0.2,0.9c-0.3,0.8-0.8,1.3-1.1,1.5   c-2.5,2.1-4.9,4.2-7.4,6.3c2.7-1.5,5.4-3,8.2-4.5c1.9,0.6,3.1,0.3,4,0c0.7-0.3,1.1-0.6,2.8-1.7c0.8-0.5,1.5-0.8,1.9-1.1   c-0.4-0.4-1.4-1.2-3.1-1.5C32.2,28.3,30.9,28.8,30.4,29z"/><path d="M95,47.3c0.1-2.2,0.3-9.3-4.6-16.3c-4.9-7.1-11.7-9.5-13.8-10.1c1.1-0.2,2.6-0.3,4.4,0   c1.9,0.3,3.4,0.9,4.4,1.4c-1.6-2-4.5-5.1-9-7.6c-4.3-2.3-8.2-3.1-10.6-3.5c0.7-0.2,1.5-0.4,2.4-0.6c1.2-0.2,2.3-0.3,3.3-0.3   C66.7,7.8,60,5.4,51.7,4.8c-1.8-0.1-11.1-0.6-20.3,3.8c-3.9,1.8-5.6,3.5-6,5.6c-0.4,2.2,0.9,4.3,1.6,5.2c-2.6,1.5-5.2,3-7.8,4.5   c0,1.7,0,3.5,0,5.2c-4.6,3.5-9.1,7.1-13.7,10.6c-0.1,0.1-0.4,0.5-0.5,1c-0.1,0.8,0.5,1.4,0.5,1.5c0.3,0.5,0.7,0.9,1,1.4   c0,1.6,0.1,3.2,0.1,4.8c0,0.2,0,0.5,0.1,0.8c0.3,1.4,1.4,2.3,2.2,2.8c-0.1,0.8-0.2,1.9-0.3,3.2c-0.1,1.4-0.1,2.7,0,3.6   c0.1,0.7,0.7,3,4.5,5.1c0.2-0.9,0.9-2.6,2.5-3.7c0.8-0.6,1.6-0.8,2.9-1c1.6-0.3,4-0.6,6.9-0.6c-3.4,2.3-7.5,5.7-10,10.5   c-0.6,1.2-1,2.3-1.2,3.5c-0.6,4.4,2.3,8,3.4,9.2c-0.2-0.6-0.7-2.7,0.3-5c0.6-1.4,1.6-2.3,2.2-2.7c0.4,2.3,1.6,7.1,5.4,11.6   c4.9,5.8,11,7.5,13.2,8c-1.3-1.2-4.3-4.4-5.6-9.6c-1.4-5.7,0.2-10.4,0.8-12c0.1,1.5,0.3,3.9,1.5,6.5c1.4,3.1,3.6,5.3,5,6.6   c3.2,3.1,5.2,3.7,5.3,5.6c0.1,1.5-1,2.8-1.9,3.7c1.6,0.4,7.3,1.6,12.8-1.5c6.2-3.5,9.7-11.2,8.5-19.4c0.8,1.4,2.1,4.5,2,8.5   c-0.2,5.9-3.4,9.8-4.4,10.9c4.1-1.1,11.3-3.8,16.9-10.3c1.5-1.8,3.7-4.4,5-8.5c2.3-7.4-0.3-14-1.3-16.3c1.1,1.2,2.6,3.2,3.8,5.9   c1.5,3.7,1.5,6.9,1.4,8.8c1-1.5,6.6-10.5,3.6-21.8c-2.4-8.9-8.6-13.7-10.5-15.1c1.6,0.3,4.4,1.1,7.2,3.2C92.8,42,94.4,45.7,95,47.3   z M10.5,50.5c-0.7-0.8-1-1.6-1.1-2.1c-0.2-0.8-0.6-1.9,0-2.6c0.5-0.5,1.2-0.6,1.5-0.5c0.1,0.9,0.3,1.8,0.5,2.7   c0.2,0.9,0.4,1.7,0.5,2.5C11.5,50.5,11,50.5,10.5,50.5z M19.9,55.4c-0.4,0.7-1.1,0.9-3.3,1.4c-2.1,0.5-2.7,0.6-3.4,1.1   c-0.6,0.5-0.9,1-1.1,1.4c-0.3-0.2-0.6-0.6-0.9-1.1c-0.4-0.8-0.3-1.5-0.1-2.4c0.1-0.7,0.3-1.7,0.9-2.8c6.7-0.1,8.1,0.8,8.2,1.4   C20.2,54.8,20,55.2,19.9,55.4z M79.1,32.1c-2.6,0.3-4.8,0.9-6.3,1.5c4.6,2.9,7.7,5.9,9.8,8c1.9,2.1,2.8,3.3,3,3.7   c2.5,3.8,3.2,7.6,3.5,10c-1.9-1-4.3-2.1-7.1-3c-3.2-1-6-1.6-8.4-1.8c1.8,2.2,4,5.5,5.2,9.9c0.9,3.2,2,7.1,0.3,11.4   c-1.3,3.4-3.8,5.5-5.2,6.5c-0.1-1.3-0.7-4.9-3.7-8.2c-3-3.3-6.5-4.2-7.8-4.5c-0.8,4.5-1.9,8.1-2.9,10.6c-1.7,4.4-3.2,6.3-4.3,7.4   c-1.2,1.3-2.4,2.2-3.3,2.7c-0.5-0.7-1.3-1.7-2.4-2.8c-1.6-1.6-3.1-2.4-3.7-2.8c-2.7-1.8-5.3-5-6.3-7.8c-1.9-5.2,0.9-10.4,1.7-11.9   c-2.1,1-7.1,3.8-10.4,9.8c-2.1,3.8-2.7,7.4-2.9,9.6c-0.9-1.4-2.6-4.2-2.8-8.1c-0.2-3.4,0.9-5.8,1.7-7.7c0.8-1.8,2-4.1,9-11.5   c4.7-5,5.7-5.6,7.9-8.6c2.1-2.9,3.5-5.5,4.4-7.3c-2.4,3.2-7.2,8.9-11.7,9c-0.5,0-2.2,0.1-2.5-0.6c-0.2-0.7,1.2-1.7,2.6-2.8   c1.4-1,2.6-1.8,3.5-2.3c-0.8,0.3-2,0.7-3.5,1c-2.2,0.4-2.6,0-4.4,0.5c-1.6,0.4-1.8,0.9-3.9,1.6c-1.1,0.4-2.1,0.6-2.8,0.7   c0.5,0.1,1.8,0.5,2.8,1.7c0.1,0.2,1.7,2.2,0.9,4c-0.9,1.9-3.9,2-4.6,2c-1.7,0-2.4-0.5-4.3-1c-1.4-0.3-3.4-0.6-5.9-0.4   c-0.3-0.6-0.6-1.4-0.8-2.3c-0.2-1.1-0.3-2.1-0.2-2.9c2.4,0.2,4.2-0.3,4.5-1.2c0.1-0.2,0.1-0.5-0.1-0.8c-1-0.6-2.4-1.1-4-1.6   c-2.4-0.7-4.5-0.7-6-0.6c4.7-3.6,9.4-7.3,14.1-10.9c0-1.7,0-3.4,0-5.1c3-1.8,6-3.7,9-5.5c-0.2-0.4-1.2-2.8-0.2-5.3   c0.9-2.3,3.2-3.9,5.8-4.2c-0.4,0.3-2.3,1.7-2.7,4.3c-0.2,1.6,0.3,3,0.5,3.5c1.6-1.9,5-5.3,10.4-7.5C50.8,8,56.1,8.4,58.6,8.7   c-2.2,0.1-5.4,0.6-9,2c-2.8,1.2-5,2.6-6.5,3.8c4.1-0.8,9.9-1.4,16.7-0.5c5,0.6,9.2,1.9,12.4,3.1c-0.9,0.2-3.1,0.7-5.1,2.4   c-2.1,1.8-2.9,4-3.2,4.9c2.7-0.2,8-0.2,13.8,2.5c3.6,1.7,6.1,3.8,7.7,5.4C83.8,32,81.6,31.9,79.1,32.1z"/></g></svg>