<svg xmlns="http://www.w3.org/2000/svg" xmlns:xlink="http://www.w3.org/1999/xlink" version="1.1" x="0px" y="0px" viewBox="0 0 100 125" enable-background="new 0 0 100 100" xml:space="preserve"><symbol viewBox="-9.858 -9.858 19.716 19.716"><path fill="#000000" stroke="#592F37" stroke-width="2.5699" stroke-miterlimit="10" d="M8.573,0c0-4.735-3.838-8.573-8.573-8.573   S-8.573-4.735-8.573,0c0,4.735,3.838,8.573,8.573,8.573S8.573,4.735,8.573,0z"/><path fill="#000000" stroke="#592F37" stroke-width="2.5699" stroke-miterlimit="10" d="M2.858,0c0-1.578-1.279-2.858-2.858-2.858   c-1.578,0-2.858,1.279-2.858,2.858c0,1.578,1.279,2.858,2.858,2.858C1.578,2.858,2.858,1.578,2.858,0z"/></symbol><symbol viewBox="-5.525 -16.49 11.051 32.981"><path fill="#000000" stroke="#592F37" stroke-width="2" stroke-miterlimit="10" d="M4.526-15.49h-9.051v30.981h1.559   c4.138,0,7.492-3.354,7.492-7.492V-15.49z"/></symbol><g display="none"><rect x="-1202.374" y="-53.377" display="inline" fill="#000000" width="1328.934" height="1233.377"/></g><g><path d="M34.854,51.834c2.114,0,3.834-1.72,3.834-3.833c0-2.114-1.72-3.834-3.834-3.834S31.02,45.886,31.02,48   C31.02,50.114,32.739,51.834,34.854,51.834z"/><path d="M65.146,51.834c2.114,0,3.834-1.72,3.834-3.833c0-2.114-1.72-3.834-3.834-3.834s-3.834,1.72-3.834,3.834   C61.313,50.114,63.032,51.834,65.146,51.834z"/><path d="M23.912,29.953C19.632,35.509,17.078,42.46,17.078,50c0,18.153,14.769,32.922,32.922,32.922S82.923,68.154,82.923,50   c0-7.539-2.554-14.49-6.833-20.047c0.849-0.263,1.712-0.494,2.591-0.687c2.254-0.504,4.604-0.76,6.989-0.76v-5.833   c-2.813,0-5.593,0.303-8.252,0.898c-1.958,0.43-3.852,1.018-5.678,1.736c-5.804-5.116-13.413-8.23-21.74-8.23   c-8.326,0-15.935,3.113-21.739,8.228c-1.823-0.716-3.713-1.303-5.668-1.732c-2.672-0.598-5.452-0.901-8.264-0.901v5.833   c2.384,0,4.736,0.256,7.001,0.763C22.206,29.461,23.066,29.691,23.912,29.953z M50,22.911c5.978,0,11.506,1.95,15.991,5.242   c-7.26,4.395-12.902,11.125-15.985,19.019c-3.085-7.896-8.73-14.626-15.993-19.021C38.497,24.86,44.024,22.911,50,22.911z    M29.521,32.299c10.357,5.534,17.264,16.517,17.264,28.662h0.608h5.226h0.608c0-12.144,6.9-23.124,17.254-28.66   c4.111,4.751,6.607,10.937,6.607,17.699c0,14.937-12.151,27.089-27.089,27.089c-14.937,0-27.088-12.152-27.088-27.089   C22.912,43.237,25.409,37.051,29.521,32.299z"/></g></svg>