<svg xmlns="http://www.w3.org/2000/svg" xmlns:xlink="http://www.w3.org/1999/xlink" version="1.1" x="0px" y="0px" viewBox="0 0 96 120" enable-background="new 0 0 96 96" xml:space="preserve"><path d="M59.882,7.017c-17.294,0-31.363,14.071-31.363,31.366l0.004,30.538c-0.02,0.186-2.187,18.563-23.022,18.563v1.5h23.769  h11.089h25.265c25.229,0,25.627-22.573,25.628-22.805V39.289h-0.023c0.009-0.302,0.023-0.603,0.023-0.906  C91.25,21.088,77.179,7.017,59.882,7.017z M37.267,84.177c-2.119,2.194-4.811,3.306-7.998,3.306H15.126  c13.266-4.606,14.872-18.254,14.893-18.484V47.958c2.251,7.006,6.904,12.94,12.984,16.84C43.016,67.049,42.798,78.451,37.267,84.177  z M59.882,68.249c-16.467,0-29.863-13.398-29.863-29.866c0-4.479,0.997-8.727,2.771-12.543h16.518c9.678,0,9.823,8.555,9.824,8.918  v16.314v5.136h1.5v-5.136V34.759c0.001-0.364,0.146-8.919,9.824-8.919h16.522c1.774,3.817,2.771,8.065,2.771,12.543  C89.75,54.851,76.352,68.249,59.882,68.249z"/><path d="M46.098,31.59c-3.579,0-6.49,2.912-6.49,6.49c0,3.579,2.911,6.491,6.49,6.491s6.49-2.912,6.49-6.491  C52.588,34.502,49.677,31.59,46.098,31.59z"/><path d="M73.671,31.59c-3.579,0-6.49,2.912-6.49,6.49c0,3.579,2.911,6.491,6.49,6.491s6.49-2.912,6.49-6.491  C80.161,34.502,77.25,31.59,73.671,31.59z"/></svg>