<svg xmlns="http://www.w3.org/2000/svg" version="1.1" viewBox="-5.0 -10.0 110.0 135.0">
 <path d="m18.59 39.902v0.003906 14.551c0 20.578 16.738 37.316 37.316 37.316h23.426c1.1523 0 2.082-0.92969 2.082-2.082v-49.785s-0.003906-0.011719-0.003906-0.019531c0-0.054688 0.007813-0.10547 0.007813-0.16016 0-0.027343-0.003907-0.054687-0.003907-0.082031v-0.66797c0-0.57812-0.039062-1.1367-0.078124-1.5 0-0.082031-0.007813-0.18359-0.019532-0.28906-0.003906-0.042969-0.007812-0.082031-0.011718-0.12891-0.007813-0.066406-0.023438-0.125-0.03125-0.19141-1.4492-15.992-14.914-28.566-31.273-28.566-16.363 0-29.848 12.598-31.277 28.605-0.007812 0.050781-0.019531 0.10156-0.023437 0.15234-0.003907 0.039062-0.007813 0.078125-0.011719 0.12109-0.003906 0.03125-0.007812 0.058593-0.011719 0.085937-0.054687 0.56641-0.089843 1.125-0.089843 1.7031v0.58594c0 0.054687-0.007813 0.10547-0.007813 0.16016 0 0.058594 0.007813 0.11328 0.007813 0.17188zm4.168-0.17188v-0.16016c0.003907-0.73437 0.046876-1.4609 0.10938-2.1797 0.78906-6.2734 6.1172-10.988 12.473-10.988 6.9375 0 12.582 5.6445 12.582 12.582v6.5273c0 1.1523 0.92969 2.082 2.082 2.082s2.082-0.92969 2.082-2.082v-6.5273c0-6.9375 5.6445-12.582 12.582-12.582 6.3555 0 11.684 4.7227 12.457 10.805 0.074219 0.80469 0.12109 1.6211 0.125 2.4453v0.082031s0.003906 0.011719 0.003906 0.015625c-0.007812 15.02-12.23 27.234-27.254 27.234s-27.234-12.207-27.25-27.223c0-0.011719 0.007812-0.019531 0.007812-0.035157zm0.046876 15.66c4.9531 8.5625 13.805 14.598 24.129 15.602v0.49219c0 6.543 3.1289 12.359 7.9531 16.07-17.492-0.53906-31.59-14.664-32.082-32.168zm54.445 32.219h-10.027c-8.8906 0-16.121-7.2344-16.121-16.121v-0.39453c11.191-0.39062 20.898-6.6367 26.152-15.789v32.305zm-27.25-75.129c9.1875 0 17.309 4.582 22.25 11.57-2.2852-1.1602-4.8633-1.8164-7.582-1.8164-6.3086 0-11.809 3.5078-14.664 8.6758-2.8555-5.168-8.3555-8.6758-14.664-8.6758-2.7227 0-5.3047 0.65625-7.5898 1.8203 4.9414-6.9883 13.062-11.574 22.254-11.574z"/>
 <path d="m64.664 46.16c4.2188 0 7.6523-3.4297 7.6523-7.6484s-3.4297-7.6523-7.6523-7.6523c-4.2227 0-7.6523 3.4297-7.6523 7.6523 0 4.2227 3.4297 7.6484 7.6523 7.6484zm0-11.137c1.9219 0 3.4844 1.5625 3.4844 3.4844 0 1.9219-1.5625 3.4844-3.4844 3.4844-1.9219 0-3.4844-1.5625-3.4844-3.4844 0-1.9219 1.5625-3.4844 3.4844-3.4844z"/>
 <path d="m42.988 38.508c0-4.2188-3.4297-7.6523-7.6523-7.6523-4.2227 0-7.6523 3.4297-7.6523 7.6523 0 4.2227 3.4297 7.6484 7.6523 7.6484 4.2227 0 7.6523-3.4297 7.6523-7.6484zm-11.137 0c0-1.9219 1.5625-3.4844 3.4844-3.4844 1.9219 0 3.4844 1.5625 3.4844 3.4844 0 1.9219-1.5625 3.4844-3.4844 3.4844-1.9219 0-3.4844-1.5625-3.4844-3.4844z"/>
</svg>