<svg xmlns="http://www.w3.org/2000/svg" xmlns:xlink="http://www.w3.org/1999/xlink" viewBox="-5.0 -10.0 110.0 135.0" x="0px" y="0px"><defs><clipPath id="a"><rect width="100" height="100"/></clipPath></defs><g data-name="AAAAAAAA &#8211; 1" clip-path="url(#a)"><g data-name="Groupe 45" transform="translate(16 12.111)"><path data-name="Trac&#233; 2924" d="M280.1,98l-4.109,2.6q-.264.167-.159-.126c1.465-4.113,4.541-8.263,7.4-11.522a.234.234,0,0,0-.008-.317c-7.767-7.771.342-21.011,10.656-16.673q1.009.423,2.063.793a.658.658,0,0,0,.382.016c3.755-.964,6.632-3.894,8.7-7.035q.106-.159.22,0l4.76,6.424q.146.2.293,0l4.72-6.38q.146-.2.277.012c1.489,2.4,6.416,8.113,9.553,6.705q6.632-2.982,11.311.948c4.972,4.17,5.131,10.444.793,15.294a.193.193,0,0,0,0,.26,40.21,40.21,0,0,1,7.189,10.591q.541,1.164-.566.513l-3.515-2.055q-.33-.191-.24.175c1.79,7.222.618,15.835-4.284,21.706q-.183.22-.24-.061l-.635-3.08a.09.09,0,0,0-.167-.02,39.511,39.511,0,0,1-8.923,12.177q-.159.151-.207-.061l-1.062-4.646a.155.155,0,0,0-.3-.02c-1.493,3.788-3.251,5.379-6.75,8.414a31.963,31.963,0,0,0-7.055,8.687q-.126.228-.26,0A36.118,36.118,0,0,0,301.3,131.4a16.728,16.728,0,0,1-5.049-6.868q-.167-.415-.281.02l-1.107,4.329q-.061.236-.24.073a38.142,38.142,0,0,1-8.935-12.149.1.1,0,0,0-.183.02l-.716,2.986q-.065.273-.252.061c-4.98-5.59-5.977-14.716-4.231-21.714Q280.409,97.81,280.1,98Zm47.408-3.084a13.24,13.24,0,0,1,8.442,8.113q.191.5.171-.037A18.853,18.853,0,0,0,328.5,88.224a80.791,80.791,0,0,1-13.968-13.231q-.155-.2-.277.024a40.448,40.448,0,0,0-3.894,10.188.114.114,0,0,1-.224,0A40.3,40.3,0,0,0,306.151,74.9q-.1-.191-.244-.024a98.573,98.573,0,0,1-13.7,13.007c-5.1,4.158-7.966,8.516-8.235,15.339q-.02.472.151.033a13.627,13.627,0,0,1,8.447-8.292.13.13,0,0,1,.138.212c-4.04,4.337-6.489,8.967-6,15.107q.024.3.183.049A14.413,14.413,0,0,1,291.2,106a.171.171,0,0,1,.244.22,12.39,12.39,0,0,0,.35,12.788,4.289,4.289,0,0,0,1,1.131q.232.187.244-.106a8.928,8.928,0,0,1,3.922-7.25.639.639,0,0,0,.236-.321,37.212,37.212,0,0,1,4.231-8.324,8.452,8.452,0,0,0,1.233-5.09.539.539,0,0,0-.134-.338c-1.208-1.4-4.431-1.09-5-2.376a14.719,14.719,0,0,0-3.865-5.289.236.236,0,0,1,.146-.415c4.6-.13,9.093.126,10.721,5.212,1.583,4.931-1.115,8.707-3.7,12.617-1.375,2.075-2.588,5.647-1.562,8.08,1.664,3.955,6.026,4.524,8.935,1.5,3.34-3.466-4.17-7.572-6.921-8.239q-.248-.061-.073-.244c2.047-2.1,6.335.061,8.565.716a.614.614,0,0,0,.4-.012c2.787-1.054,6.107-2.73,8.825-.643q.2.155-.045.208a11.907,11.907,0,0,0-7.531,5.025c-1.473,2.12.81,3.971,2.641,4.691,4.39,1.729,7.633-2.449,6.966-6.587-.736-4.573-4.52-7.466-5.537-11.832-1.025-4.406.85-8.748,5.354-10.22a12.36,12.36,0,0,1,5.529-.09q.224.033.057.187a16.411,16.411,0,0,0-3.93,5.525.824.824,0,0,1-.618.48c-1.566.269-4.6.655-4.394,2.966.419,4.577,4.431,7.832,5.257,12.609a.4.4,0,0,0,.232.3c2.73,1.212,4.183,4.557,4.3,7.364a.106.106,0,0,0,.187.065c3.869-4.467,3.45-9.11,1.273-14.208q-.134-.321.167-.146a12.079,12.079,0,0,1,4.419,4.345q.159.264.183-.045c.533-6.481-1.941-10.578-6.1-15.152q-.3-.327.11-.185ZM293.579,76.73c-6.343-4.288-11.779,3.971-6.937,9.321a.24.24,0,0,0,.342.045c3.2-2.051,8.182-4.484,11.262-8.276q.138-.167-.073-.122A5.757,5.757,0,0,1,293.579,76.73ZM321.9,78.057c3.194,3.466,7.206,5.44,11.2,8.093a.239.239,0,0,0,.354-.049c3.088-3.67,2.722-8.67-2.335-10.367a5.158,5.158,0,0,0-4.207.944,6.946,6.946,0,0,1-4.882,1.127Q321.616,77.748,321.9,78.057Zm-3.084,16.836a.4.4,0,0,0,.326.61,2.69,2.69,0,0,0,2.86-2.01q.069-.22-.159-.22a3.374,3.374,0,0,0-3.03,1.62Zm-17.414.325c-.281-1.33-1.892-1.892-3.084-1.863q-.2,0-.134.2a2.659,2.659,0,0,0,3.035,1.916.2.2,0,0,0,.147-.084.214.214,0,0,0,.034-.169Zm8.6,38.709a10.334,10.334,0,0,1,3.43-4.24c2.661-1.9,5.664-3.82,5.875-7.657q.012-.228-.2-.155a8.215,8.215,0,0,1-8.76-1.688.291.291,0,0,0-.362-.02c-2.844,1.969-5.542,3.08-8.984,1.758q-.281-.11-.252.2c.639,6.172,7.45,6.424,9.13,11.8a.069.069,0,0,0,.126.008Z" transform="translate(-275.802 -65.656)"/></g></g><text x="0.0" y="117.5" font-size="5.0" font-weight="bold" font-family="Arbeit Regular, Helvetica, Arial-Unicode, Arial, Sans-serif" fill="#000000">Created by Pekosman</text><text x="0.0" y="122.5" font-size="5.0" font-weight="bold" font-family="Arbeit Regular, Helvetica, Arial-Unicode, Arial, Sans-serif" fill="#000000">from Noun Project</text></svg>