<svg xmlns="http://www.w3.org/2000/svg" xmlns:xlink="http://www.w3.org/1999/xlink" version="1.1" x="0px" y="0px" viewBox="-180 272 250 312.5" style="enable-background:new -180 272 250 250;" xml:space="preserve"><path d="M-55,349.5c-26.2,0-47.5,21.3-47.5,47.5v47.5H-55c26.2,0,47.5-21.3,47.5-47.5S-28.8,349.5-55,349.5z M-55,437h-40v-40  c0-1.2,0.1-2.4,0.2-3.6c0.8-9.3,8.2-16.9,17.6-17.5c0.3,0,0.7,0,1.1,0c10.4,0,18.8,8,19.2,18.4c0.2,4.3-1,8.2-3.2,11.5  c2.4,1.4,4.2,3.3,5.2,5.5c1.1-2.2,2.9-4.1,5.2-5.5c-2.2-3.3-3.3-7.2-3.2-11.5c0.5-10.4,8.8-18.4,19.2-18.4c0.4,0,0.7,0,1.1,0  c9.3,0.5,16.7,8.1,17.6,17.5c0.1,1.2,0.2,2.4,0.2,3.6C-15,419-33,437-55,437z"/><circle cx="-70" cy="395.9" r="6.2"/><circle cx="-40" cy="395.9" r="6.2"/></svg>