<svg xmlns="http://www.w3.org/2000/svg" xmlns:xlink="http://www.w3.org/1999/xlink" version="1.1" x="0px" y="0px" viewBox="0 0 100 125" style="enable-background:new 0 0 100 100;" xml:space="preserve"><g style="" display="none"><rect x="-668.232" y="-99.018" style="" width="1346" height="1488" display="inline" fill="#BDACAF"/></g><g><polygon points="53.844,34.587 51.013,31.916 48.181,34.587 51.013,39.425  "/><path d="M38.739,34.728h3.957v-3.957c0-1.791-1.452-3.243-3.243-3.243h-3.957v3.957C35.496,33.276,36.948,34.728,38.739,34.728z"/><path d="M66.53,31.485v-3.957h-3.957c-1.791,0-3.243,1.452-3.243,3.243v3.957h3.957C65.078,34.728,66.53,33.276,66.53,31.485z"/><path d="M23.086,94.483c0.958-0.077,1.163-0.094,2.357-0.07c0.855,0.017,1.717-0.014,2.568-0.096   c8.772-0.847,15.867-2.231,22.58-5.766c12.779-6.729,22.06-20.105,26.264-33.677c1.224-3.953,2.034-8.043,2.314-12.174   c0.527-7.756-0.257-16.049-4.036-22.899c-1.184-2.146-2.656-4.149-4.392-5.964c3.804-0.973,6.62-4.413,6.62-8.52l-8.804,0v6.459   C63.403,7.395,56.932,5,50.09,5c-6.198,0-11.936,1.991-16.622,5.357l0-5.04l-8.804,0c0,3.596,2.158,6.683,5.248,8.05   c-2.199,2.197-4.041,4.751-5.433,7.565c-1.4,2.829-2.088,5.959-2.088,9.115l0,5.391v2.013v18.458v38.476   C22.39,94.387,22.285,94.466,23.086,94.483L23.086,94.483z M70.138,58.67c-4.706,11.069-13.089,20.821-21.879,25.449   c-2.694,1.418-5.852,2.579-9.232,3.466c5.471-5.385,8.845-13.193,8.689-21.825c-0.139-7.669-3.037-14.587-7.653-19.67h23.708   c0.675,0,1.319-0.134,1.907-0.376c3.384-0.727,6.35-2.509,8.586-4.953C74.094,46.539,72.718,52.599,70.138,58.67z M50.09,10.009   c4.408,0,8.629,1.206,12.292,3.453c-0.045,0-0.089-0.007-0.135-0.007c-4.333,0-8.298,1.689-11.234,4.474   c-2.936-2.785-6.902-4.474-11.234-4.474c-0.748,0-1.479,0.068-2.201,0.166C41.206,11.337,45.494,10.009,50.09,10.009z    M38.16,18.577c5.684-0.788,10.695,2.653,12.348,7.627c0.166,0.498,0.845,0.498,1.011-0.001c1.64-4.937,6.588-8.363,12.218-7.644   c4.89,0.624,8.894,4.494,9.671,9.362c1.039,6.505-3.527,12.334-9.636,13.159l0,0H39.144v-0.032   c-6.423-0.357-11.42-6.058-10.581-12.739C29.188,23.325,33.184,19.268,38.16,18.577z M42.707,65.851   c0.191,10.587-5.964,19.759-14.713,22.987L27.174,43.41C36.033,46.32,42.516,55.264,42.707,65.851z"/></g></svg>