<svg xmlns="http://www.w3.org/2000/svg" width="500" height="500" viewBox="0 0 69 69" shape-rendering="crispEdges"><path fill="#FFFFFF" d="M0 0h69v69H0z"/><path stroke="#000000" d="M2 2.5h7m2 0h2m1 0h1m1 0h2m1 0h1m1 0h1m3 0h2m2 0h5m2 0h1m2 0h6m1 0h2m5 0h3m1 0h1m2 0h7M2 3.5h1m5 0h1m5 0h5m3 0h2m1 0h1m4 0h2m3 0h1m1 0h1m4 0h3m2 0h5m6 0h1m1 0h1m5 0h1M2 4.5h1m1 0h3m1 0h1m1 0h1m2 0h1m2 0h1m1 0h1m2 0h1m2 0h1m1 0h2m1 0h1m1 0h3m1 0h9m1 0h1m2 0h1m1 0h1m3 0h1m1 0h1m1 0h1m1 0h1m1 0h3m1 0h1M2 5.5h1m1 0h3m1 0h1m1 0h2m1 0h1m1 0h1m1 0h2m1 0h2m2 0h3m2 0h2m5 0h1m1 0h1m1 0h2m3 0h1m3 0h4m3 0h2m2 0h1m1 0h3m1 0h1M2 6.5h1m1 0h3m1 0h1m1 0h1m1 0h1m2 0h1m1 0h2m1 0h2m2 0h2m1 0h1m1 0h1m2 0h5m2 0h1m2 0h5m4 0h1m2 0h2m2 0h1m1 0h1m1 0h3m1 0h1M2 7.5h1m5 0h1m1 0h1m2 0h3m2 0h1m1 0h1m2 0h1m3 0h1m1 0h4m3 0h3m1 0h2m5 0h4m1 0h2m2 0h1m3 0h1m5 0h1M2 8.5h7m1 0h1m1 0h1m1 0h1m1 0h1m1 0h1m1 0h1m1 0h1m1 0h1m1 0h1m1 0h1m1 0h1m1 0h1m1 0h1m1 0h1m1 0h1m1 0h1m1 0h1m1 0h1m1 0h1m1 0h1m1 0h1m1 0h1m1 0h1m1 0h1m1 0h1m1 0h7M10 9.5h2m3 0h2m2 0h3m3 0h3m3 0h2m3 0h1m3 0h2m1 0h2m1 0h2m5 0h1m2 0h1m1 0h1M2 10.5h1m1 0h5m2 0h1m4 0h1m2 0h2m1 0h1m1 0h3m5 0h7m2 0h1m7 0h2m1 0h1m4 0h2m1 0h5M7 11.5h1m1 0h1m1 0h2m6 0h3m3 0h1m1 0h2m1 0h2m1 0h1m1 0h1m1 0h1m1 0h1m2 0h3m1 0h2m6 0h3m2 0h1m1 0h1m3 0h1M3 12.5h1m1 0h1m1 0h3m1 0h3m2 0h5m1 0h1m1 0h5m2 0h2m2 0h2m1 0h1m2 0h1m2 0h2m1 0h7m4 0h3m1 0h4M3 13.5h1m1 0h3m4 0h3m1 0h1m2 0h2m4 0h12m5 0h1m3 0h2m1 0h1m1 0h1m1 0h2m1 0h2m7 0h1M3 14.5h2m2 0h4m3 0h2m2 0h1m1 0h2m3 0h1m1 0h1m1 0h2m4 0h1m1 0h2m1 0h2m1 0h3m4 0h2m6 0h2m2 0h2m1 0h1M2 15.5h1m1 0h1m1 0h1m2 0h2m1 0h1m1 0h1m1 0h1m1 0h1m1 0h1m5 0h3m3 0h4m1 0h1m3 0h5m3 0h2m5 0h2m3 0h1m4 0h1M3 16.5h1m1 0h1m2 0h1m1 0h1m1 0h2m2 0h2m2 0h5m1 0h3m1 0h1m5 0h3m1 0h2m4 0h1m1 0h1m1 0h5m2 0h2m1 0h1m1 0h4M2 17.5h1m2 0h3m2 0h8m1 0h5m2 0h4m2 0h1m1 0h1m3 0h1m3 0h5m7 0h3m2 0h1m2 0h2m1 0h1M2 18.5h1m3 0h1m1 0h1m2 0h1m1 0h1m1 0h6m2 0h1m2 0h1m4 0h1m5 0h2m1 0h2m1 0h3m2 0h3m1 0h2m1 0h2m3 0h3m2 0h1M9 19.5h1m1 0h5m5 0h1m1 0h2m2 0h2m2 0h1m2 0h2m1 0h1m5 0h2m4 0h2m5 0h2m3 0h1m2 0h3M4 20.5h1m2 0h5m1 0h1m1 0h3m1 0h1m2 0h2m1 0h3m4 0h2m2 0h1m1 0h3m2 0h1m1 0h1m1 0h2m2 0h2m2 0h1m2 0h3m1 0h4M6 21.5h2m2 0h1m1 0h2m2 0h7m2 0h2m2 0h1m1 0h2m2 0h1m4 0h1m1 0h1m1 0h1m2 0h1m5 0h2m2 0h1m1 0h1m3 0h1m1 0h1M2 22.5h1m1 0h1m2 0h2m2 0h2m1 0h1m3 0h3m1 0h4m6 0h1m5 0h1m2 0h1m1 0h1m1 0h1m1 0h1m1 0h5m2 0h3m2 0h2m1 0h2M3 23.5h1m2 0h1m3 0h1m3 0h1m3 0h4m2 0h2m1 0h2m3 0h1m2 0h1m1 0h3m1 0h2m1 0h1m2 0h1m6 0h1m1 0h1m2 0h1m3 0h1m2 0h1M3 24.5h1m4 0h1m1 0h1m1 0h3m3 0h4m6 0h1m2 0h1m3 0h2m1 0h1m1 0h2m1 0h1m2 0h1m1 0h1m1 0h4m1 0h1m1 0h1m1 0h5M4 25.5h2m4 0h1m3 0h2m1 0h3m1 0h1m7 0h1m2 0h4m2 0h1m2 0h5m1 0h1m2 0h1m3 0h3m1 0h1m7 0h1M2 26.5h3m3 0h3m1 0h5m2 0h4m5 0h3m1 0h1m2 0h6m4 0h1m2 0h6m4 0h1m3 0h4M2 27.5h1m2 0h1m6 0h1m4 0h1m1 0h1m1 0h1m1 0h5m1 0h1m1 0h2m1 0h1m3 0h2m2 0h1m1 0h1m1 0h1m2 0h1m6 0h1m2 0h1m2 0h1m2 0h2M5 28.5h4m1 0h1m8 0h1m1 0h1m1 0h1m1 0h2m8 0h2m2 0h2m1 0h2m4 0h1m1 0h3m5 0h1m1 0h1m1 0h1m1 0h2M6 29.5h1m4 0h4m1 0h3m1 0h2m1 0h3m1 0h2m1 0h1m1 0h1m1 0h1m6 0h2m1 0h1m1 0h1m7 0h1m1 0h1m4 0h3m1 0h2M2 30.5h3m1 0h3m1 0h1m1 0h1m4 0h1m3 0h1m2 0h1m1 0h2m1 0h1m1 0h1m1 0h1m1 0h7m1 0h1m3 0h7m1 0h1m1 0h6m2 0h1M2 31.5h3m1 0h1m2 0h1m2 0h1m1 0h4m1 0h2m2 0h1m1 0h2m3 0h2m2 0h2m4 0h2m1 0h2m2 0h1m1 0h2m3 0h1m1 0h1m2 0h1m2 0h5M3 32.5h1m2 0h5m1 0h2m1 0h4m1 0h3m2 0h2m2 0h9m3 0h2m2 0h1m6 0h2m2 0h1m1 0h6m1 0h2M3 33.5h1m2 0h1m3 0h7m2 0h6m2 0h2m1 0h1m1 0h1m3 0h3m2 0h1m2 0h1m1 0h2m1 0h3m1 0h6m3 0h1m2 0h1M6 34.5h1m1 0h1m1 0h1m5 0h1m1 0h1m2 0h1m2 0h3m4 0h2m1 0h1m1 0h1m1 0h2m1 0h1m1 0h1m3 0h2m1 0h1m1 0h2m4 0h1m1 0h1m1 0h4M3 35.5h2m1 0h1m3 0h1m2 0h2m3 0h1m4 0h4m2 0h1m1 0h2m3 0h3m2 0h1m1 0h4m2 0h1m4 0h1m1 0h1m1 0h1m3 0h1m2 0h1M2 36.5h2m1 0h6m1 0h2m2 0h1m3 0h1m1 0h3m2 0h4m1 0h5m1 0h2m1 0h1m1 0h1m6 0h2m1 0h1m1 0h10M3 37.5h1m3 0h1m2 0h3m5 0h2m3 0h1m1 0h1m2 0h1m3 0h1m3 0h9m4 0h7m1 0h2m1 0h3m2 0h2M5 38.5h1m2 0h2m5 0h1m2 0h1m2 0h1m1 0h1m3 0h6m1 0h1m2 0h2m4 0h3m3 0h2m1 0h2m1 0h1m2 0h1m2 0h1m1 0h2M2 39.5h2m3 0h1m1 0h1m3 0h1m1 0h1m1 0h2m1 0h1m2 0h3m6 0h2m1 0h2m2 0h1m1 0h4m1 0h1m2 0h1m1 0h1m1 0h2m1 0h2m1 0h5M4 40.5h1m2 0h4m1 0h3m5 0h1m1 0h3m1 0h1m3 0h2m5 0h2m1 0h1m2 0h1m1 0h1m1 0h2m1 0h3m5 0h2m3 0h1m1 0h1M3 41.5h1m6 0h4m1 0h5m4 0h6m1 0h3m1 0h4m1 0h2m1 0h2m1 0h1m2 0h2m4 0h3m1 0h2m1 0h5M2 42.5h1m1 0h1m3 0h1m1 0h1m2 0h1m1 0h2m1 0h1m3 0h2m1 0h1m2 0h2m1 0h1m2 0h2m1 0h2m1 0h3m1 0h2m4 0h1m1 0h5m1 0h2m1 0h1M4 43.5h4m3 0h2m1 0h1m1 0h1m8 0h1m6 0h2m3 0h1m1 0h1m2 0h6m6 0h4m2 0h3m2 0h1M5 44.5h9m2 0h4m4 0h1m1 0h1m6 0h3m2 0h2m1 0h1m1 0h1m4 0h3m1 0h2m1 0h1m2 0h1m3 0h3M2 45.5h3m2 0h1m2 0h1m2 0h1m1 0h1m5 0h3m1 0h3m2 0h2m1 0h2m2 0h1m1 0h1m2 0h5m7 0h3m3 0h4m1 0h1M3 46.5h1m1 0h6m2 0h1m3 0h1m2 0h1m1 0h1m3 0h1m3 0h1m1 0h1m3 0h1m1 0h2m1 0h1m2 0h1m2 0h1m1 0h2m1 0h2m1 0h5m1 0h4m1 0h1M2 47.5h1m1 0h1m2 0h1m3 0h1m5 0h1m1 0h1m1 0h4m2 0h1m1 0h1m3 0h2m1 0h3m3 0h1m1 0h2m3 0h1m3 0h1m2 0h2m2 0h1m1 0h2m2 0h1M2 48.5h1m1 0h2m2 0h1m2 0h2m1 0h2m3 0h1m1 0h1m3 0h2m2 0h1m1 0h1m2 0h2m1 0h4m4 0h1m1 0h2m1 0h6m3 0h1m1 0h1m2 0h2M4 49.5h4m2 0h1m3 0h1m1 0h1m1 0h1m2 0h4m1 0h5m1 0h3m1 0h2m3 0h2m1 0h3m1 0h1m4 0h2m1 0h1m1 0h2m2 0h1M2 50.5h2m1 0h1m1 0h2m1 0h2m2 0h1m3 0h3m1 0h1m1 0h3m2 0h2m1 0h2m1 0h2m1 0h1m1 0h2m3 0h1m1 0h4m1 0h2m5 0h1m1 0h1m1 0h3M2 51.5h3m2 0h1m6 0h3m3 0h3m1 0h1m7 0h1m1 0h1m2 0h2m4 0h3m3 0h1m1 0h1m2 0h6m1 0h2m1 0h1m1 0h1M2 52.5h1m2 0h5m2 0h1m6 0h6m1 0h2m1 0h3m1 0h3m1 0h2m1 0h1m6 0h2m1 0h4m2 0h1m4 0h1m3 0h1M4 53.5h2m4 0h3m1 0h1m1 0h2m3 0h1m4 0h1m3 0h1m5 0h1m1 0h1m3 0h1m3 0h2m5 0h1m2 0h1m3 0h1m1 0h2M4 54.5h1m3 0h4m1 0h4m2 0h1m2 0h4m3 0h3m2 0h2m1 0h3m1 0h1m2 0h2m1 0h6m2 0h2m1 0h1m3 0h4M4 55.5h1m4 0h1m1 0h1m1 0h3m1 0h2m2 0h3m1 0h2m1 0h1m2 0h2m2 0h3m1 0h1m4 0h3m6 0h2m1 0h2m3 0h2m3 0h1M4 56.5h2m1 0h3m3 0h3m2 0h3m1 0h1m2 0h1m3 0h7m2 0h1m1 0h1m2 0h1m3 0h2m1 0h4m1 0h1m2 0h1m5 0h1M2 57.5h1m2 0h1m4 0h2m3 0h3m5 0h2m1 0h1m1 0h2m6 0h1m1 0h1m5 0h4m1 0h1m1 0h1m1 0h5m1 0h4m2 0h1M3 58.5h2m1 0h1m1 0h4m1 0h2m4 0h2m4 0h3m2 0h1m1 0h9m2 0h1m4 0h1m1 0h1m1 0h2m4 0h7M10 59.5h1m1 0h5m2 0h2m7 0h2m1 0h2m3 0h4m1 0h1m4 0h5m2 0h1m1 0h4m3 0h1m1 0h2M2 60.5h7m2 0h3m3 0h2m1 0h3m1 0h3m3 0h3m1 0h1m1 0h3m1 0h5m2 0h1m1 0h4m3 0h3m1 0h1m1 0h2M2 61.5h1m5 0h1m1 0h3m4 0h2m1 0h1m1 0h3m2 0h2m2 0h2m3 0h1m4 0h7m6 0h1m1 0h1m1 0h1m3 0h2m2 0h1M2 62.5h1m1 0h3m1 0h1m1 0h1m3 0h1m3 0h2m2 0h2m1 0h1m1 0h2m3 0h9m4 0h1m2 0h5m2 0h1m2 0h5m1 0h1M2 63.5h1m1 0h3m1 0h1m1 0h2m1 0h3m1 0h3m1 0h1m2 0h1m3 0h2m1 0h3m3 0h2m2 0h1m2 0h1m1 0h2m2 0h2m2 0h5m6 0h1M2 64.5h1m1 0h3m1 0h1m1 0h1m2 0h2m1 0h3m1 0h2m1 0h5m4 0h1m7 0h1m2 0h4m2 0h2m1 0h1m1 0h2m5 0h3m1 0h1M2 65.5h1m5 0h1m5 0h4m1 0h1m2 0h1m1 0h1m2 0h1m1 0h1m1 0h1m1 0h3m2 0h4m1 0h2m1 0h2m3 0h1m2 0h1m1 0h1m1 0h2m2 0h1m2 0h1M2 66.5h7m1 0h3m1 0h3m1 0h1m7 0h1m1 0h5m3 0h2m2 0h1m3 0h1m3 0h3m1 0h1m2 0h1m4 0h1m1 0h3"/></svg>
