<svg xmlns="http://www.w3.org/2000/svg" width="500" height="500" viewBox="0 0 61 61" shape-rendering="crispEdges"><path fill="#FFFFFF" d="M0 0h61v61H0z"/><path stroke="#000000" d="M2 2.5h7m3 0h1m1 0h1m2 0h1m1 0h1m1 0h7m1 0h2m1 0h2m3 0h2m2 0h1m2 0h2m2 0h2m2 0h7M2 3.5h1m5 0h1m4 0h1m1 0h3m1 0h1m2 0h1m2 0h1m2 0h2m4 0h3m2 0h2m2 0h1m3 0h1m1 0h1m2 0h1m5 0h1M2 4.5h1m1 0h3m1 0h1m1 0h5m1 0h5m1 0h6m2 0h3m4 0h1m2 0h2m1 0h1m2 0h4m2 0h1m1 0h3m1 0h1M2 5.5h1m1 0h3m1 0h1m1 0h1m6 0h3m1 0h3m4 0h2m3 0h3m2 0h2m1 0h5m1 0h1m1 0h1m2 0h1m1 0h3m1 0h1M2 6.5h1m1 0h3m1 0h1m1 0h2m1 0h1m3 0h2m2 0h1m2 0h3m1 0h5m1 0h2m2 0h1m2 0h1m7 0h1m2 0h1m1 0h3m1 0h1M2 7.5h1m5 0h1m1 0h2m1 0h6m1 0h2m2 0h1m1 0h1m1 0h1m3 0h4m3 0h3m2 0h3m1 0h1m3 0h1m5 0h1M2 8.5h7m1 0h1m1 0h1m1 0h1m1 0h1m1 0h1m1 0h1m1 0h1m1 0h1m1 0h1m1 0h1m1 0h1m1 0h1m1 0h1m1 0h1m1 0h1m1 0h1m1 0h1m1 0h1m1 0h1m1 0h1m1 0h1m1 0h7M10 9.5h1m1 0h3m2 0h5m1 0h2m1 0h3m3 0h1m1 0h2m1 0h1m4 0h1m1 0h1m1 0h1m1 0h3M2 10.5h1m1 0h5m2 0h6m1 0h1m1 0h1m3 0h2m1 0h7m4 0h4m1 0h3m2 0h3m1 0h5M2 11.5h1m1 0h2m1 0h1m2 0h1m1 0h1m2 0h1m1 0h3m1 0h3m2 0h1m1 0h1m3 0h4m1 0h1m1 0h1m1 0h2m1 0h2m3 0h1m3 0h2m2 0h2M2 12.5h1m1 0h5m3 0h4m2 0h2m2 0h2m2 0h1m2 0h3m1 0h1m4 0h1m1 0h2m1 0h2m1 0h4m1 0h1m4 0h1M3 13.5h1m3 0h1m1 0h2m4 0h5m6 0h1m2 0h1m1 0h4m1 0h1m1 0h1m1 0h1m1 0h5m1 0h3m3 0h5M2 14.5h2m2 0h4m1 0h2m4 0h1m5 0h1m1 0h4m1 0h2m5 0h1m11 0h3m1 0h1M9 15.5h1m1 0h2m1 0h1m1 0h1m1 0h1m3 0h1m3 0h1m2 0h2m1 0h2m7 0h2m1 0h3m3 0h1m3 0h1m1 0h1m1 0h1M2 16.5h1m2 0h1m1 0h4m2 0h1m2 0h1m2 0h2m2 0h1m1 0h3m2 0h2m3 0h1m1 0h1m1 0h2m2 0h1m3 0h3m1 0h3m3 0h1M4 17.5h2m1 0h1m1 0h1m1 0h1m2 0h2m3 0h1m1 0h3m2 0h1m3 0h6m2 0h1m1 0h1m1 0h1m2 0h1m1 0h1m2 0h1m5 0h1m1 0h1M2 18.5h1m1 0h3m1 0h1m1 0h1m1 0h1m1 0h3m1 0h2m5 0h1m1 0h1m1 0h1m2 0h1m2 0h2m1 0h1m2 0h1m2 0h1m2 0h1m3 0h2m2 0h1m1 0h2M3 19.5h1m1 0h2m2 0h3m1 0h2m3 0h2m1 0h1m1 0h2m1 0h2m2 0h3m1 0h1m2 0h2m2 0h7m1 0h2m3 0h5M6 20.5h1m1 0h8m1 0h5m2 0h2m1 0h1m1 0h1m3 0h1m1 0h3m3 0h2m2 0h1m1 0h1m1 0h4m1 0h3M2 21.5h1m1 0h1m2 0h1m2 0h1m1 0h1m2 0h3m1 0h1m1 0h1m2 0h4m2 0h1m1 0h2m1 0h1m1 0h1m4 0h1m1 0h3m1 0h2m4 0h1m1 0h1M5 22.5h2m1 0h1m1 0h1m1 0h3m1 0h1m3 0h1m1 0h2m1 0h1m3 0h1m1 0h3m1 0h2m1 0h2m1 0h1m2 0h1m2 0h2m2 0h1m3 0h1m1 0h1M4 23.5h2m1 0h1m1 0h3m1 0h1m4 0h1m1 0h2m1 0h1m2 0h2m2 0h1m1 0h4m3 0h1m1 0h2m1 0h5m1 0h1m2 0h1m3 0h2M2 24.5h1m3 0h4m1 0h1m1 0h1m1 0h1m2 0h1m1 0h1m1 0h4m2 0h2m1 0h2m3 0h3m1 0h1m4 0h2m1 0h2m2 0h2m2 0h1M2 25.5h2m2 0h1m8 0h2m1 0h2m3 0h2m1 0h2m2 0h2m1 0h1m1 0h1m1 0h1m2 0h1m1 0h1m3 0h1m2 0h1m3 0h4m1 0h1M2 26.5h1m2 0h1m2 0h4m1 0h1m3 0h1m1 0h1m2 0h1m2 0h1m2 0h2m1 0h2m2 0h1m1 0h3m1 0h3m1 0h1m1 0h1m1 0h1m5 0h1M4 27.5h2m1 0h1m1 0h1m2 0h3m1 0h2m1 0h1m1 0h1m1 0h1m2 0h2m2 0h4m1 0h1m2 0h1m2 0h1m1 0h3m4 0h1m4 0h4M6 28.5h7m2 0h5m1 0h1m2 0h1m3 0h5m2 0h2m1 0h4m1 0h1m3 0h2m1 0h7M2 29.5h1m3 0h1m3 0h2m8 0h2m1 0h2m1 0h3m3 0h3m1 0h2m2 0h3m2 0h2m1 0h3m3 0h3M4 30.5h1m1 0h1m1 0h1m1 0h2m3 0h5m3 0h1m1 0h1m2 0h1m1 0h1m1 0h1m2 0h5m3 0h2m2 0h1m2 0h1m1 0h1m1 0h2m2 0h1M2 31.5h2m1 0h2m3 0h1m1 0h1m1 0h1m1 0h2m1 0h2m1 0h1m1 0h1m1 0h1m1 0h1m3 0h1m1 0h1m1 0h2m1 0h1m5 0h2m3 0h1m3 0h1m1 0h3M2 32.5h1m1 0h8m2 0h1m2 0h2m2 0h1m1 0h10m2 0h1m1 0h1m2 0h1m1 0h4m1 0h9m1 0h1M4 33.5h2m4 0h1m1 0h1m1 0h2m1 0h1m1 0h1m2 0h1m2 0h2m1 0h1m2 0h2m1 0h1m2 0h2m2 0h2m1 0h1m2 0h2m1 0h3m2 0h4M5 34.5h1m1 0h4m2 0h1m1 0h2m1 0h1m3 0h3m1 0h2m2 0h1m2 0h1m1 0h1m2 0h1m2 0h1m7 0h2m2 0h2m2 0h1M2 35.5h1m4 0h1m1 0h2m3 0h1m1 0h5m2 0h1m1 0h1m3 0h1m2 0h3m2 0h2m2 0h1m2 0h1m4 0h2m4 0h3M2 36.5h1m1 0h2m2 0h2m1 0h2m1 0h3m2 0h1m3 0h2m2 0h3m2 0h1m3 0h1m1 0h4m1 0h1m3 0h4m4 0h1m1 0h1M4 37.5h2m4 0h1m3 0h1m2 0h3m1 0h1m2 0h2m1 0h1m1 0h1m1 0h1m1 0h2m3 0h2m2 0h2m2 0h1m1 0h2m3 0h4M2 38.5h1m2 0h1m2 0h1m2 0h1m1 0h8m1 0h2m1 0h1m1 0h2m2 0h2m5 0h1m2 0h1m1 0h1m1 0h1m5 0h1m2 0h1M2 39.5h2m1 0h1m3 0h2m2 0h4m2 0h1m6 0h2m1 0h1m1 0h3m1 0h1m3 0h1m1 0h1m1 0h2m2 0h1m4 0h2m3 0h2M5 40.5h2m1 0h5m1 0h3m4 0h1m1 0h1m2 0h1m1 0h1m2 0h2m3 0h5m2 0h1m1 0h1m2 0h1m5 0h1m1 0h1M7 41.5h1m1 0h3m1 0h2m1 0h2m2 0h4m1 0h2m2 0h1m5 0h2m4 0h3m1 0h1m1 0h1m1 0h5m1 0h4M5 42.5h1m1 0h2m1 0h3m2 0h1m2 0h1m4 0h1m1 0h1m1 0h4m1 0h2m1 0h1m1 0h2m1 0h1m2 0h3m4 0h1m1 0h1m4 0h1M3 43.5h1m3 0h1m1 0h1m1 0h2m4 0h2m7 0h1m1 0h1m2 0h1m1 0h2m2 0h2m2 0h1m2 0h2m3 0h2m1 0h1m2 0h2m1 0h1M3 44.5h2m3 0h1m3 0h1m2 0h1m1 0h4m2 0h1m3 0h4m1 0h1m1 0h3m1 0h1m4 0h1m4 0h1m1 0h1m2 0h2m1 0h2M3 45.5h2m1 0h2m2 0h2m1 0h1m1 0h1m4 0h3m2 0h2m1 0h2m1 0h1m5 0h1m2 0h1m1 0h3m1 0h1m2 0h9M6 46.5h4m1 0h1m1 0h4m1 0h2m1 0h1m2 0h2m2 0h1m1 0h2m1 0h2m3 0h2m1 0h1m2 0h2m1 0h2m1 0h2m2 0h2M5 47.5h1m3 0h1m5 0h1m3 0h1m4 0h1m1 0h1m1 0h2m4 0h1m2 0h2m3 0h1m1 0h4m1 0h2m1 0h1m2 0h4M2 48.5h1m1 0h1m2 0h7m2 0h2m1 0h2m1 0h3m1 0h2m1 0h3m1 0h5m1 0h4m1 0h1m3 0h4m1 0h1m1 0h2M2 49.5h5m2 0h2m2 0h7m1 0h2m1 0h3m1 0h2m2 0h4m1 0h1m1 0h1m5 0h2m1 0h2m2 0h1m2 0h2m1 0h1M8 50.5h2m2 0h1m1 0h1m5 0h3m1 0h2m1 0h6m5 0h4m1 0h2m3 0h1m1 0h8M10 51.5h1m1 0h1m1 0h1m1 0h2m1 0h3m2 0h1m1 0h1m1 0h1m3 0h1m1 0h2m1 0h2m2 0h1m3 0h2m3 0h1m3 0h1m1 0h1m1 0h1M2 52.5h7m2 0h2m2 0h1m1 0h3m4 0h5m1 0h1m1 0h1m6 0h3m1 0h3m1 0h2m1 0h1m1 0h1m1 0h2m1 0h1M2 53.5h1m5 0h1m1 0h1m2 0h3m2 0h1m1 0h1m2 0h1m2 0h1m1 0h1m3 0h4m2 0h1m1 0h1m1 0h1m5 0h3m3 0h1m1 0h2M2 54.5h1m1 0h3m1 0h1m1 0h1m2 0h3m3 0h2m2 0h1m1 0h8m2 0h3m1 0h1m1 0h1m1 0h2m2 0h2m1 0h6m2 0h1M2 55.5h1m1 0h3m1 0h1m1 0h1m1 0h1m2 0h4m2 0h3m2 0h1m1 0h1m1 0h1m1 0h1m1 0h1m8 0h2m1 0h1m5 0h5M2 56.5h1m1 0h3m1 0h1m1 0h5m1 0h2m1 0h2m3 0h3m2 0h1m1 0h1m1 0h1m1 0h1m1 0h1m1 0h3m5 0h2m1 0h1m5 0h1M2 57.5h1m5 0h1m3 0h1m1 0h2m1 0h1m3 0h4m1 0h1m1 0h1m3 0h1m1 0h4m4 0h1m1 0h1m1 0h1m1 0h2m1 0h1m1 0h2m1 0h1M2 58.5h7m1 0h2m1 0h2m1 0h2m1 0h1m1 0h1m5 0h1m3 0h1m1 0h1m4 0h2m3 0h1m1 0h4m3 0h1m2 0h1m1 0h1"/></svg>
