<svg xmlns="http://www.w3.org/2000/svg" width="500" height="500" viewBox="0 0 61 61" shape-rendering="crispEdges"><path fill="#FFFFFF" d="M0 0h61v61H0z"/><path stroke="#000000" d="M2 2.5h7m2 0h4m1 0h3m2 0h1m2 0h1m1 0h2m2 0h3m6 0h1m4 0h1m3 0h2m2 0h7M2 3.5h1m5 0h1m2 0h3m2 0h2m2 0h3m3 0h1m1 0h2m1 0h1m3 0h2m1 0h1m1 0h2m5 0h1m1 0h1m2 0h1m5 0h1M2 4.5h1m1 0h3m1 0h1m1 0h1m2 0h1m1 0h2m4 0h4m1 0h1m1 0h5m2 0h1m1 0h1m2 0h3m1 0h1m1 0h4m2 0h1m1 0h3m1 0h1M2 5.5h1m1 0h3m1 0h1m1 0h2m4 0h2m5 0h1m9 0h2m3 0h2m3 0h3m3 0h1m2 0h1m1 0h3m1 0h1M2 6.5h1m1 0h3m1 0h1m1 0h1m1 0h2m1 0h2m1 0h5m1 0h3m1 0h5m1 0h2m1 0h1m4 0h1m1 0h1m4 0h1m2 0h1m1 0h3m1 0h1M2 7.5h1m5 0h1m1 0h1m2 0h3m1 0h2m1 0h1m3 0h2m2 0h1m3 0h3m1 0h1m1 0h4m1 0h1m2 0h3m3 0h1m5 0h1M2 8.5h7m1 0h1m1 0h1m1 0h1m1 0h1m1 0h1m1 0h1m1 0h1m1 0h1m1 0h1m1 0h1m1 0h1m1 0h1m1 0h1m1 0h1m1 0h1m1 0h1m1 0h1m1 0h1m1 0h1m1 0h1m1 0h1m1 0h7M10 9.5h1m2 0h3m3 0h2m1 0h3m1 0h3m3 0h4m2 0h1m1 0h1m1 0h5m1 0h3M2 10.5h1m1 0h5m3 0h2m2 0h2m3 0h2m1 0h2m1 0h6m2 0h5m1 0h1m5 0h1m4 0h5M2 11.5h3m2 0h1m1 0h1m2 0h1m1 0h2m1 0h2m2 0h3m2 0h1m3 0h4m1 0h1m1 0h3m1 0h1m1 0h3m3 0h2m4 0h3M2 12.5h2m4 0h1m1 0h1m1 0h1m1 0h1m1 0h1m2 0h1m1 0h1m1 0h1m2 0h4m5 0h1m1 0h1m2 0h1m5 0h8m1 0h3M3 13.5h1m1 0h1m1 0h1m1 0h3m2 0h1m4 0h2m1 0h1m4 0h1m1 0h1m2 0h1m1 0h2m5 0h4m1 0h3m3 0h5M2 14.5h1m1 0h3m1 0h4m1 0h4m3 0h4m1 0h2m1 0h1m1 0h4m1 0h6m3 0h2m3 0h1m1 0h1m6 0h1M2 15.5h1m1 0h4m1 0h2m1 0h2m2 0h2m2 0h3m3 0h1m2 0h4m1 0h1m2 0h2m3 0h1m1 0h1m5 0h2m1 0h4m1 0h1M2 16.5h1m2 0h2m1 0h5m1 0h5m3 0h2m1 0h3m2 0h1m2 0h1m1 0h2m1 0h4m1 0h1m1 0h1m1 0h3m2 0h1m3 0h2M3 17.5h1m2 0h1m2 0h1m1 0h2m2 0h1m2 0h1m2 0h2m3 0h1m3 0h1m1 0h3m2 0h1m1 0h1m2 0h2m2 0h3m1 0h1m2 0h5M2 18.5h1m1 0h1m1 0h1m1 0h1m4 0h1m1 0h7m1 0h2m2 0h1m1 0h1m5 0h1m2 0h1m1 0h2m1 0h1m1 0h1m5 0h3m3 0h1M2 19.5h3m2 0h1m1 0h1m8 0h5m1 0h3m1 0h1m3 0h1m1 0h2m1 0h3m3 0h3m1 0h1m1 0h2m4 0h4M3 20.5h1m1 0h1m2 0h2m2 0h2m1 0h2m3 0h1m2 0h1m3 0h3m1 0h1m4 0h1m1 0h1m1 0h4m2 0h1m1 0h6m1 0h2M2 21.5h1m1 0h1m1 0h1m3 0h1m1 0h1m3 0h1m1 0h1m1 0h1m1 0h6m2 0h1m1 0h2m1 0h1m3 0h1m1 0h3m1 0h2m2 0h1m1 0h1m2 0h1m1 0h2M2 22.5h1m1 0h1m1 0h1m1 0h1m2 0h1m2 0h4m1 0h7m3 0h1m1 0h3m1 0h5m3 0h2m7 0h1m2 0h1m1 0h1M2 23.5h2m1 0h2m2 0h4m1 0h1m2 0h1m2 0h2m4 0h2m4 0h2m1 0h1m1 0h2m2 0h2m1 0h2m1 0h1m1 0h3m1 0h1m4 0h1M8 24.5h1m1 0h1m2 0h1m1 0h4m1 0h2m1 0h5m1 0h4m1 0h1m1 0h5m2 0h1m4 0h2m2 0h2m2 0h2M9 25.5h1m1 0h1m1 0h2m1 0h3m2 0h2m2 0h2m2 0h5m1 0h2m3 0h3m3 0h1m2 0h1m4 0h4M2 26.5h1m1 0h2m2 0h2m2 0h4m4 0h1m1 0h2m1 0h1m1 0h2m2 0h2m2 0h1m1 0h3m4 0h2m1 0h1m1 0h1m1 0h1m1 0h1m1 0h1m1 0h1M2 27.5h1m1 0h1m4 0h2m5 0h1m2 0h1m4 0h1m1 0h2m2 0h4m4 0h1m4 0h2m5 0h1m3 0h3m1 0h1M2 28.5h10m2 0h1m2 0h1m2 0h1m1 0h1m1 0h2m2 0h5m2 0h2m2 0h2m4 0h13M3 29.5h4m3 0h2m1 0h1m2 0h1m2 0h1m2 0h2m2 0h1m1 0h1m3 0h3m1 0h2m1 0h1m2 0h1m1 0h3m1 0h3m3 0h5M5 30.5h2m1 0h1m1 0h7m4 0h1m2 0h1m1 0h1m1 0h1m1 0h1m1 0h1m2 0h2m1 0h4m1 0h1m4 0h1m1 0h1m1 0h1m1 0h1m1 0h2M2 31.5h2m1 0h2m3 0h4m1 0h4m1 0h4m1 0h4m3 0h3m1 0h2m4 0h1m1 0h1m5 0h1m3 0h1m1 0h1M2 32.5h2m1 0h8m1 0h3m1 0h1m1 0h1m2 0h3m1 0h6m2 0h1m2 0h4m1 0h1m1 0h1m1 0h11M2 33.5h1m8 0h3m1 0h1m3 0h3m1 0h3m3 0h1m3 0h5m1 0h1m2 0h3m1 0h1m1 0h6m2 0h2M5 34.5h4m4 0h1m2 0h1m3 0h2m1 0h2m1 0h1m2 0h1m2 0h1m3 0h1m1 0h2m5 0h1m1 0h2m4 0h3m1 0h1M2 35.5h2m1 0h3m1 0h1m1 0h2m3 0h1m1 0h1m2 0h1m1 0h1m1 0h1m2 0h1m2 0h2m2 0h1m1 0h3m1 0h2m1 0h2m3 0h4m3 0h1M2 36.5h2m2 0h1m1 0h2m1 0h2m2 0h2m1 0h2m1 0h1m2 0h1m2 0h2m1 0h1m1 0h1m3 0h1m1 0h1m1 0h1m2 0h1m1 0h1m1 0h2m1 0h1m2 0h2m2 0h2M3 37.5h1m2 0h2m2 0h3m1 0h1m2 0h1m4 0h1m1 0h2m1 0h1m1 0h3m1 0h3m1 0h1m1 0h1m2 0h1m1 0h4m1 0h1m1 0h2m2 0h2M6 38.5h1m1 0h5m2 0h1m1 0h2m1 0h3m2 0h1m1 0h2m2 0h2m2 0h1m2 0h1m2 0h1m1 0h1m3 0h1m2 0h1m2 0h2M10 39.5h1m3 0h1m1 0h3m1 0h3m1 0h1m1 0h2m1 0h1m5 0h1m3 0h1m1 0h4m1 0h1m4 0h2m2 0h4M2 40.5h1m1 0h2m2 0h2m1 0h2m2 0h1m1 0h1m1 0h2m1 0h1m1 0h2m2 0h1m2 0h2m3 0h1m1 0h1m1 0h4m1 0h1m1 0h2m1 0h1m2 0h3M2 41.5h3m1 0h2m1 0h1m4 0h1m1 0h4m2 0h1m1 0h1m1 0h2m1 0h1m5 0h3m3 0h2m1 0h3m2 0h1m1 0h3m2 0h1M2 42.5h2m2 0h8m1 0h1m2 0h1m2 0h1m3 0h1m3 0h2m2 0h1m4 0h3m2 0h2m3 0h1m3 0h1m2 0h1m1 0h1M3 43.5h1m1 0h3m1 0h5m2 0h1m1 0h1m1 0h3m1 0h1m1 0h1m1 0h1m2 0h3m1 0h1m2 0h2m4 0h4m4 0h1m2 0h2m1 0h1M3 44.5h4m1 0h1m1 0h1m3 0h2m1 0h3m2 0h1m1 0h1m3 0h1m1 0h3m3 0h3m1 0h4m1 0h2m1 0h3m2 0h2m1 0h2M2 45.5h2m1 0h2m2 0h2m1 0h2m1 0h3m2 0h2m2 0h1m1 0h4m5 0h1m1 0h1m2 0h1m1 0h1m1 0h1m1 0h1m2 0h2m1 0h1m1 0h4M2 46.5h3m3 0h1m1 0h3m2 0h1m2 0h1m3 0h2m1 0h1m4 0h2m1 0h2m1 0h4m1 0h1m1 0h3m1 0h2m5 0h2M2 47.5h2m2 0h1m2 0h2m1 0h1m1 0h1m2 0h4m2 0h2m1 0h1m2 0h1m4 0h2m2 0h1m5 0h2m1 0h1m1 0h1m2 0h1m2 0h1m1 0h2M2 48.5h1m1 0h1m2 0h3m4 0h3m3 0h2m2 0h8m1 0h2m1 0h1m1 0h4m1 0h1m4 0h3m2 0h1M2 49.5h5m6 0h3m1 0h2m1 0h2m2 0h1m1 0h1m5 0h4m1 0h1m1 0h9m1 0h1m1 0h2m2 0h2m1 0h1M8 50.5h1m1 0h2m2 0h1m1 0h1m3 0h13m4 0h3m3 0h2m3 0h1m1 0h5M10 51.5h1m2 0h1m2 0h1m3 0h1m1 0h2m1 0h2m1 0h1m3 0h4m1 0h1m4 0h1m1 0h1m4 0h2m3 0h1m1 0h1m1 0h1M2 52.5h7m3 0h1m1 0h7m4 0h1m1 0h2m1 0h1m1 0h1m4 0h1m1 0h3m1 0h1m3 0h4m1 0h1m1 0h2m1 0h1M2 53.5h1m5 0h1m1 0h2m1 0h1m3 0h6m3 0h1m1 0h1m3 0h3m2 0h1m1 0h1m1 0h2m1 0h4m1 0h2m3 0h1m1 0h1M2 54.5h1m1 0h3m1 0h1m1 0h1m1 0h1m2 0h1m1 0h1m1 0h2m1 0h2m1 0h2m1 0h5m3 0h1m1 0h1m2 0h1m1 0h2m5 0h6m1 0h1M2 55.5h1m1 0h3m1 0h1m1 0h1m1 0h1m1 0h1m1 0h1m1 0h1m1 0h1m2 0h1m2 0h6m2 0h1m4 0h1m1 0h1m2 0h1m1 0h1m2 0h1m1 0h1m1 0h4M2 56.5h1m1 0h3m1 0h1m1 0h3m1 0h4m1 0h2m4 0h3m3 0h2m5 0h1m1 0h2m1 0h1m6 0h1m1 0h1M2 57.5h1m5 0h1m2 0h1m3 0h3m1 0h1m1 0h3m2 0h1m1 0h2m1 0h4m2 0h1m4 0h5m2 0h1m1 0h1m4 0h1M2 58.5h7m1 0h3m2 0h3m1 0h1m1 0h4m2 0h1m1 0h1m5 0h2m1 0h2m1 0h1m2 0h1m5 0h1m1 0h1m2 0h1m1 0h1"/></svg>
