<svg xmlns="http://www.w3.org/2000/svg" width="500" height="500" viewBox="0 0 69 69" shape-rendering="crispEdges"><path fill="#FFFFFF" d="M0 0h69v69H0z"/><path stroke="#000000" d="M2 2.5h7m2 0h1m5 0h1m1 0h4m1 0h2m1 0h2m2 0h3m2 0h1m3 0h5m1 0h1m1 0h1m1 0h2m1 0h3m1 0h1m2 0h7M2 3.5h1m5 0h1m3 0h2m1 0h1m3 0h1m2 0h2m2 0h1m2 0h1m1 0h1m3 0h1m1 0h1m4 0h1m3 0h2m1 0h5m4 0h1m1 0h1m5 0h1M2 4.5h1m1 0h3m1 0h1m1 0h1m1 0h1m1 0h2m2 0h5m1 0h1m2 0h1m5 0h1m1 0h2m2 0h3m1 0h1m1 0h1m2 0h1m5 0h1m1 0h1m1 0h1m1 0h1m1 0h3m1 0h1M2 5.5h1m1 0h3m1 0h1m1 0h1m1 0h2m1 0h1m1 0h1m1 0h3m8 0h3m3 0h3m1 0h1m5 0h1m2 0h5m2 0h2m2 0h1m1 0h3m1 0h1M2 6.5h1m1 0h3m1 0h1m1 0h2m1 0h4m1 0h1m1 0h1m1 0h1m4 0h1m1 0h1m2 0h5m2 0h1m1 0h1m1 0h2m1 0h1m2 0h3m2 0h2m2 0h1m1 0h1m1 0h3m1 0h1M2 7.5h1m5 0h1m1 0h5m1 0h4m3 0h2m2 0h1m1 0h2m1 0h1m3 0h1m3 0h2m4 0h3m1 0h1m1 0h2m2 0h1m3 0h1m5 0h1M2 8.5h7m1 0h1m1 0h1m1 0h1m1 0h1m1 0h1m1 0h1m1 0h1m1 0h1m1 0h1m1 0h1m1 0h1m1 0h1m1 0h1m1 0h1m1 0h1m1 0h1m1 0h1m1 0h1m1 0h1m1 0h1m1 0h1m1 0h1m1 0h1m1 0h1m1 0h1m1 0h7M10 9.5h3m1 0h1m2 0h1m2 0h3m1 0h1m1 0h2m3 0h2m3 0h2m1 0h1m2 0h1m1 0h4m1 0h1m4 0h1m1 0h1m1 0h1M2 10.5h1m1 0h5m3 0h5m5 0h1m1 0h2m3 0h8m1 0h2m1 0h1m8 0h1m1 0h2m6 0h5M2 11.5h1m1 0h1m2 0h1m1 0h1m1 0h6m3 0h2m3 0h1m1 0h2m2 0h1m1 0h1m1 0h1m3 0h1m1 0h1m1 0h3m1 0h1m1 0h1m5 0h4m1 0h1m1 0h2m1 0h2M3 12.5h1m2 0h4m1 0h2m1 0h1m2 0h2m3 0h1m3 0h2m2 0h3m2 0h2m1 0h1m2 0h1m5 0h7m4 0h2m4 0h1M3 13.5h2m2 0h1m1 0h2m1 0h7m1 0h3m2 0h1m1 0h1m3 0h2m2 0h1m1 0h1m4 0h1m2 0h3m3 0h1m1 0h2m1 0h1m1 0h1m2 0h1M2 14.5h1m2 0h7m2 0h1m3 0h1m3 0h1m1 0h1m1 0h1m3 0h1m2 0h4m1 0h1m1 0h2m1 0h2m4 0h3m6 0h2m2 0h4M3 15.5h2m1 0h1m2 0h3m3 0h1m1 0h1m2 0h1m2 0h7m2 0h1m10 0h3m4 0h1m2 0h2m1 0h2m7 0h2M2 16.5h2m1 0h4m1 0h1m4 0h2m3 0h1m4 0h4m5 0h5m1 0h2m3 0h1m2 0h1m1 0h3m4 0h2m1 0h3m1 0h1M2 17.5h1m1 0h1m1 0h2m1 0h2m2 0h1m2 0h1m1 0h1m8 0h4m1 0h1m1 0h1m3 0h1m3 0h5m7 0h3m2 0h1m3 0h1m2 0h1M2 18.5h3m2 0h3m6 0h1m3 0h1m2 0h3m5 0h1m1 0h1m3 0h2m1 0h2m1 0h3m2 0h3m1 0h2m1 0h2m1 0h1m1 0h3m1 0h2M2 19.5h2m1 0h1m1 0h1m1 0h1m4 0h1m1 0h7m1 0h1m1 0h3m3 0h1m1 0h2m1 0h1m5 0h2m4 0h2m5 0h2m3 0h3m1 0h2M2 20.5h1m2 0h1m2 0h1m2 0h2m1 0h2m5 0h3m2 0h1m1 0h1m7 0h1m1 0h3m2 0h1m1 0h1m1 0h2m2 0h2m2 0h1m1 0h4m1 0h1m1 0h2M4 21.5h2m1 0h1m1 0h2m3 0h1m2 0h1m1 0h2m1 0h1m1 0h1m2 0h1m1 0h1m1 0h5m3 0h1m2 0h1m1 0h1m6 0h1m1 0h2m1 0h1m2 0h1m3 0h1m1 0h1M2 22.5h1m1 0h2m1 0h3m7 0h1m2 0h1m1 0h1m1 0h3m3 0h1m7 0h1m2 0h1m1 0h1m1 0h1m1 0h1m1 0h2m1 0h2m1 0h1m1 0h2m2 0h2m1 0h2M2 23.5h1m1 0h3m3 0h1m1 0h2m1 0h1m1 0h2m1 0h3m2 0h1m1 0h2m2 0h2m2 0h1m1 0h3m1 0h2m1 0h1m9 0h1m1 0h1m2 0h1m1 0h1m1 0h1m1 0h2M2 24.5h1m1 0h2m2 0h2m2 0h2m1 0h4m2 0h1m2 0h1m1 0h2m1 0h1m3 0h1m1 0h2m1 0h1m1 0h2m1 0h1m2 0h3m1 0h4m1 0h1m1 0h1m1 0h2m1 0h2M2 25.5h1m1 0h3m3 0h1m1 0h3m2 0h1m3 0h1m2 0h1m3 0h1m3 0h3m2 0h1m2 0h1m2 0h2m1 0h3m1 0h2m2 0h1m1 0h1m9 0h1M2 26.5h1m3 0h1m1 0h1m2 0h1m3 0h2m3 0h4m1 0h1m3 0h3m3 0h4m5 0h2m1 0h1m1 0h3m1 0h1m4 0h1m3 0h3m1 0h1M6 27.5h1m3 0h1m2 0h3m2 0h3m2 0h1m3 0h3m4 0h2m2 0h2m1 0h1m1 0h2m1 0h2m1 0h1m5 0h2m2 0h1m2 0h2m1 0h2M3 28.5h3m1 0h3m1 0h2m4 0h1m1 0h1m1 0h2m1 0h1m1 0h2m4 0h1m3 0h3m1 0h3m5 0h1m1 0h3m5 0h1m1 0h1m1 0h1m2 0h1M6 29.5h2m1 0h1m1 0h1m3 0h1m2 0h1m1 0h5m1 0h1m1 0h1m1 0h2m2 0h2m4 0h3m3 0h2m6 0h1m1 0h1m2 0h1m2 0h2m1 0h2M6 30.5h3m1 0h5m3 0h5m2 0h1m3 0h1m2 0h2m1 0h1m1 0h2m1 0h2m1 0h2m3 0h3m2 0h1m1 0h4m2 0h2m1 0h2M2 31.5h1m2 0h1m1 0h1m1 0h4m1 0h1m1 0h3m4 0h3m1 0h2m1 0h2m2 0h1m4 0h3m1 0h2m2 0h1m1 0h2m3 0h1m1 0h1m2 0h1m1 0h1m1 0h4M4 32.5h7m6 0h1m2 0h3m1 0h1m1 0h1m2 0h9m3 0h3m1 0h1m5 0h3m1 0h1m2 0h6m2 0h1M3 33.5h1m1 0h2m3 0h2m4 0h2m1 0h2m2 0h1m4 0h1m1 0h1m1 0h1m3 0h3m1 0h5m3 0h1m5 0h5m3 0h1m2 0h1M2 34.5h2m1 0h2m1 0h1m1 0h9m3 0h1m1 0h1m1 0h7m1 0h1m1 0h1m1 0h1m5 0h2m1 0h1m1 0h2m1 0h1m3 0h1m1 0h1m1 0h1m1 0h4M2 35.5h1m1 0h1m1 0h1m3 0h2m1 0h1m2 0h1m1 0h1m1 0h2m3 0h2m4 0h2m3 0h3m2 0h4m1 0h1m4 0h5m2 0h1m3 0h1m3 0h1M4 36.5h1m1 0h5m2 0h2m4 0h3m2 0h1m2 0h4m1 0h5m1 0h1m2 0h2m2 0h1m1 0h2m7 0h7m1 0h1M2 37.5h1m6 0h3m1 0h2m1 0h1m3 0h3m2 0h2m1 0h1m1 0h1m1 0h1m2 0h2m1 0h4m1 0h2m4 0h1m1 0h2m1 0h2m1 0h2m1 0h3m2 0h1M3 38.5h7m1 0h2m1 0h2m2 0h1m1 0h2m2 0h5m1 0h5m1 0h2m3 0h1m1 0h2m1 0h1m3 0h1m1 0h2m1 0h1m2 0h2m1 0h1m1 0h3M2 39.5h6m4 0h4m2 0h1m2 0h2m2 0h2m2 0h1m2 0h1m2 0h1m2 0h2m1 0h1m1 0h2m5 0h2m2 0h1m1 0h2m3 0h3m1 0h2M3 40.5h2m1 0h3m6 0h1m1 0h2m1 0h1m1 0h3m1 0h1m2 0h1m1 0h1m1 0h1m3 0h2m1 0h4m2 0h3m1 0h3m5 0h2m4 0h1M3 41.5h1m1 0h1m3 0h1m1 0h1m3 0h1m2 0h3m3 0h1m3 0h3m1 0h1m2 0h3m2 0h1m1 0h2m2 0h1m2 0h1m3 0h5m2 0h1m1 0h2M2 42.5h1m2 0h8m1 0h2m4 0h2m1 0h1m3 0h1m2 0h1m1 0h1m1 0h2m2 0h4m1 0h3m4 0h1m1 0h1m2 0h2m1 0h1m2 0h1m2 0h1M3 43.5h3m9 0h2m5 0h1m1 0h6m2 0h2m7 0h1m1 0h2m2 0h1m7 0h3m3 0h2m2 0h2M2 44.5h7m4 0h1m1 0h1m1 0h2m1 0h5m6 0h1m1 0h3m1 0h4m4 0h1m2 0h3m1 0h4m3 0h1m2 0h1M4 45.5h1m1 0h2m2 0h1m1 0h1m1 0h1m1 0h1m5 0h1m2 0h1m1 0h1m1 0h1m1 0h1m1 0h2m2 0h1m1 0h1m1 0h6m2 0h1m4 0h5m1 0h4M2 46.5h2m2 0h1m1 0h1m1 0h1m4 0h1m1 0h10m3 0h1m1 0h1m3 0h1m1 0h2m4 0h1m2 0h1m2 0h1m1 0h2m1 0h2m7 0h2M3 47.5h3m5 0h2m1 0h1m1 0h4m1 0h1m3 0h1m1 0h1m1 0h1m3 0h2m1 0h1m1 0h1m2 0h2m1 0h1m9 0h1m1 0h2m1 0h1m1 0h6M4 48.5h1m3 0h1m2 0h2m1 0h5m1 0h3m1 0h2m3 0h1m1 0h1m2 0h2m2 0h3m6 0h7m1 0h1m4 0h1m1 0h1m1 0h1M2 49.5h3m1 0h2m1 0h2m1 0h5m3 0h1m3 0h1m4 0h2m1 0h3m1 0h2m3 0h2m1 0h3m1 0h1m4 0h2m1 0h4m2 0h2m1 0h1M4 50.5h1m2 0h2m2 0h1m3 0h1m1 0h3m4 0h1m2 0h1m1 0h2m1 0h1m5 0h1m1 0h2m3 0h1m1 0h4m1 0h2m5 0h1m1 0h1m2 0h1M2 51.5h1m1 0h2m4 0h3m1 0h1m1 0h1m4 0h1m1 0h1m2 0h2m4 0h3m2 0h2m4 0h3m3 0h1m1 0h1m2 0h3m2 0h1m2 0h1m1 0h1m1 0h1M3 52.5h4m1 0h1m3 0h1m7 0h1m2 0h1m1 0h1m1 0h5m2 0h1m2 0h2m1 0h1m6 0h2m1 0h4m2 0h2m3 0h1m3 0h1M2 53.5h1m1 0h1m1 0h1m4 0h3m2 0h1m1 0h4m1 0h1m1 0h2m1 0h1m1 0h1m3 0h3m1 0h2m2 0h3m1 0h1m4 0h1m1 0h1m1 0h4m1 0h1m1 0h2M3 54.5h1m2 0h1m1 0h1m2 0h3m1 0h1m2 0h2m1 0h1m1 0h2m2 0h3m1 0h1m1 0h3m1 0h3m1 0h1m2 0h2m3 0h2m4 0h1m2 0h1m2 0h1m1 0h3M2 55.5h1m1 0h1m4 0h4m1 0h2m1 0h1m1 0h1m1 0h1m2 0h1m1 0h1m1 0h1m3 0h1m2 0h3m6 0h4m5 0h2m1 0h1m5 0h1m2 0h2M4 56.5h2m1 0h9m2 0h1m2 0h2m1 0h2m3 0h1m1 0h3m1 0h1m2 0h3m2 0h1m4 0h1m1 0h4m1 0h1m8 0h1M2 57.5h1m2 0h1m3 0h1m2 0h3m1 0h2m1 0h1m7 0h1m1 0h3m1 0h1m2 0h1m1 0h1m4 0h5m1 0h1m2 0h3m1 0h7M3 58.5h2m1 0h1m1 0h2m1 0h4m2 0h2m1 0h1m1 0h4m4 0h1m1 0h7m1 0h1m2 0h2m5 0h1m2 0h1m1 0h2m1 0h8M10 59.5h1m1 0h2m1 0h2m1 0h2m1 0h1m1 0h1m1 0h2m1 0h2m2 0h1m3 0h2m4 0h3m1 0h2m1 0h3m1 0h1m2 0h3m3 0h1m2 0h1M2 60.5h7m4 0h3m1 0h1m1 0h4m2 0h1m1 0h2m1 0h3m1 0h1m1 0h1m1 0h5m5 0h3m1 0h1m2 0h1m2 0h1m1 0h1m1 0h2M2 61.5h1m5 0h1m1 0h3m5 0h1m2 0h1m2 0h1m2 0h1m4 0h1m3 0h1m3 0h8m4 0h1m1 0h5m3 0h2m2 0h1M2 62.5h1m1 0h3m1 0h1m1 0h5m1 0h2m2 0h1m2 0h1m1 0h1m6 0h7m4 0h3m1 0h1m1 0h3m4 0h1m1 0h7M2 63.5h1m1 0h3m1 0h1m1 0h1m1 0h1m2 0h1m2 0h2m1 0h1m2 0h1m1 0h2m1 0h1m1 0h1m2 0h1m2 0h5m4 0h2m2 0h1m3 0h1m1 0h3m2 0h1m3 0h1M2 64.5h1m1 0h3m1 0h1m1 0h2m7 0h6m1 0h1m6 0h1m11 0h3m1 0h4m1 0h2m6 0h2m1 0h1M2 65.5h1m5 0h1m5 0h2m1 0h5m2 0h1m3 0h2m2 0h2m1 0h1m2 0h4m1 0h2m2 0h1m3 0h1m1 0h1m1 0h2m1 0h2m1 0h1m3 0h1M2 66.5h7m1 0h2m1 0h1m2 0h2m1 0h3m1 0h1m1 0h1m3 0h5m2 0h2m2 0h1m3 0h7m1 0h1m1 0h1m1 0h1m3 0h5"/></svg>
