<svg xmlns="http://www.w3.org/2000/svg" width="500" height="500" viewBox="0 0 61 61" shape-rendering="crispEdges"><path fill="#FFFFFF" d="M0 0h61v61H0z"/><path stroke="#000000" d="M2 2.5h7m2 0h3m2 0h1m4 0h1m1 0h5m1 0h1m2 0h3m1 0h1m1 0h2m1 0h1m1 0h2m1 0h1m1 0h2m2 0h7M2 3.5h1m5 0h1m2 0h2m3 0h2m1 0h1m4 0h1m1 0h6m1 0h3m1 0h2m1 0h1m1 0h1m2 0h1m1 0h1m1 0h1m2 0h1m5 0h1M2 4.5h1m1 0h3m1 0h1m1 0h1m5 0h1m1 0h4m1 0h1m2 0h1m2 0h1m1 0h1m2 0h4m1 0h4m1 0h1m1 0h1m1 0h2m2 0h1m1 0h3m1 0h1M2 5.5h1m1 0h3m1 0h1m1 0h1m1 0h4m1 0h5m2 0h2m5 0h3m1 0h1m2 0h3m4 0h1m3 0h1m2 0h1m1 0h3m1 0h1M2 6.5h1m1 0h3m1 0h1m1 0h9m1 0h4m1 0h1m1 0h6m4 0h3m1 0h3m1 0h1m1 0h1m1 0h1m2 0h1m1 0h3m1 0h1M2 7.5h1m5 0h1m1 0h1m2 0h6m3 0h2m2 0h3m3 0h2m1 0h2m1 0h1m1 0h3m1 0h5m3 0h1m5 0h1M2 8.5h7m1 0h1m1 0h1m1 0h1m1 0h1m1 0h1m1 0h1m1 0h1m1 0h1m1 0h1m1 0h1m1 0h1m1 0h1m1 0h1m1 0h1m1 0h1m1 0h1m1 0h1m1 0h1m1 0h1m1 0h1m1 0h1m1 0h7M10 9.5h4m1 0h1m2 0h1m3 0h1m3 0h1m1 0h1m3 0h1m1 0h1m6 0h3m1 0h3m1 0h1M2 10.5h1m1 0h5m3 0h1m1 0h2m1 0h3m2 0h2m1 0h2m1 0h6m1 0h5m4 0h2m2 0h1m1 0h1m1 0h5M3 11.5h5m2 0h12m3 0h3m1 0h1m2 0h1m3 0h4m1 0h3m2 0h2m1 0h1m1 0h4M2 12.5h1m1 0h2m1 0h3m1 0h2m2 0h1m1 0h1m4 0h1m1 0h2m5 0h1m1 0h3m3 0h1m1 0h2m1 0h1m1 0h1m1 0h1m4 0h2m2 0h1M3 13.5h1m2 0h2m1 0h1m2 0h1m9 0h4m1 0h1m1 0h1m1 0h2m1 0h2m5 0h2m1 0h1m2 0h2m1 0h1m2 0h4M4 14.5h7m2 0h1m1 0h4m5 0h1m1 0h1m1 0h2m2 0h2m1 0h4m1 0h1m4 0h3m4 0h1m2 0h1M5 15.5h3m1 0h1m2 0h1m1 0h1m1 0h4m2 0h2m1 0h1m1 0h5m6 0h2m1 0h3m2 0h1m2 0h3m1 0h4m1 0h1M2 16.5h1m2 0h1m2 0h2m1 0h2m15 0h1m3 0h5m1 0h1m1 0h1m1 0h1m1 0h1m1 0h2m3 0h2m4 0h1M2 17.5h2m2 0h2m6 0h1m1 0h1m2 0h1m1 0h5m1 0h3m2 0h4m2 0h7m4 0h2m3 0h3M2 18.5h2m1 0h2m1 0h2m4 0h1m1 0h1m1 0h1m2 0h1m2 0h1m1 0h1m3 0h1m1 0h1m2 0h1m1 0h1m2 0h1m2 0h5m1 0h5m1 0h1m1 0h2M2 19.5h2m2 0h2m1 0h2m1 0h9m1 0h2m1 0h1m1 0h1m1 0h7m2 0h2m2 0h3m4 0h2m5 0h1m1 0h1M4 20.5h1m2 0h2m1 0h2m5 0h1m1 0h1m2 0h2m2 0h4m3 0h1m1 0h3m2 0h2m3 0h4m2 0h3m3 0h1M3 21.5h1m1 0h1m1 0h1m1 0h1m1 0h1m2 0h2m2 0h4m1 0h1m1 0h1m1 0h1m1 0h4m1 0h2m2 0h1m1 0h2m2 0h1m1 0h1m5 0h1m1 0h3M5 22.5h1m1 0h5m2 0h1m1 0h1m2 0h7m2 0h1m3 0h2m1 0h3m4 0h1m4 0h3m5 0h1M4 23.5h3m5 0h1m4 0h3m3 0h1m1 0h2m2 0h5m4 0h2m1 0h1m2 0h2m2 0h4m1 0h1m4 0h1M2 24.5h1m3 0h1m1 0h1m2 0h1m1 0h1m1 0h1m4 0h1m1 0h1m1 0h1m3 0h1m2 0h1m2 0h10m3 0h1m1 0h1m3 0h1m2 0h2M9 25.5h5m1 0h2m1 0h1m1 0h2m1 0h1m2 0h4m1 0h1m2 0h2m1 0h1m1 0h4m3 0h1m2 0h1m1 0h1m1 0h4m1 0h1M2 26.5h1m1 0h1m3 0h5m6 0h2m5 0h4m1 0h1m1 0h1m1 0h1m2 0h2m5 0h1m1 0h1m4 0h1m2 0h1m1 0h1M4 27.5h3m5 0h1m3 0h1m1 0h3m2 0h1m2 0h1m1 0h2m1 0h2m1 0h1m1 0h4m1 0h1m1 0h1m1 0h1m3 0h3m1 0h1m1 0h1M2 28.5h2m2 0h5m5 0h3m2 0h2m3 0h7m1 0h2m1 0h1m1 0h2m1 0h1m1 0h1m1 0h3m1 0h5m2 0h2M2 29.5h3m1 0h1m3 0h1m1 0h2m4 0h1m1 0h3m5 0h1m3 0h1m1 0h1m1 0h1m2 0h4m1 0h1m2 0h1m2 0h1m3 0h3m1 0h1M3 30.5h1m1 0h2m1 0h1m1 0h1m2 0h3m4 0h2m3 0h2m1 0h1m1 0h1m1 0h2m1 0h1m1 0h4m4 0h2m1 0h3m1 0h1m1 0h2m2 0h1M2 31.5h1m1 0h3m3 0h3m2 0h2m3 0h1m3 0h5m3 0h1m4 0h1m3 0h1m1 0h1m2 0h1m3 0h1m3 0h1m1 0h3M2 32.5h2m2 0h5m1 0h2m3 0h2m1 0h2m1 0h1m1 0h1m1 0h6m2 0h2m1 0h5m1 0h2m1 0h8M3 33.5h1m2 0h2m2 0h1m3 0h3m1 0h1m2 0h2m1 0h1m1 0h2m1 0h1m1 0h1m4 0h1m3 0h3m1 0h1m1 0h4m2 0h5m1 0h1M2 34.5h3m1 0h1m1 0h1m5 0h1m1 0h3m1 0h1m2 0h1m1 0h3m4 0h4m1 0h2m1 0h1m4 0h1m1 0h1m2 0h4m3 0h1M2 35.5h1m6 0h1m1 0h2m2 0h1m1 0h1m1 0h2m2 0h1m2 0h2m4 0h1m5 0h3m2 0h2m4 0h2m3 0h1m1 0h1M3 36.5h2m1 0h1m1 0h1m1 0h1m1 0h1m1 0h3m1 0h4m3 0h2m1 0h1m2 0h3m1 0h3m3 0h2m3 0h1m2 0h3m1 0h1m3 0h1M3 37.5h4m2 0h2m1 0h1m2 0h2m1 0h1m2 0h1m1 0h2m1 0h1m3 0h2m2 0h1m3 0h1m2 0h3m3 0h1m1 0h1m2 0h1m1 0h3M2 38.5h2m1 0h4m2 0h1m5 0h2m10 0h1m3 0h1m1 0h3m2 0h1m4 0h3m2 0h1m2 0h1M4 39.5h1m1 0h2m1 0h2m1 0h3m5 0h1m4 0h2m1 0h1m1 0h1m1 0h2m4 0h7m3 0h2m2 0h1m1 0h1m1 0h3M2 40.5h1m2 0h5m1 0h1m5 0h1m3 0h2m1 0h1m4 0h3m2 0h1m1 0h2m4 0h2m2 0h2m1 0h5m3 0h1M3 41.5h1m2 0h2m5 0h3m6 0h2m4 0h2m2 0h1m1 0h3m1 0h1m2 0h1m1 0h1m1 0h1m3 0h1m3 0h3M4 42.5h3m1 0h1m1 0h2m1 0h1m2 0h3m2 0h2m1 0h1m3 0h3m1 0h2m1 0h3m2 0h1m1 0h4m1 0h1m4 0h1m1 0h1m1 0h3M6 43.5h2m3 0h1m2 0h1m1 0h1m1 0h2m1 0h1m1 0h1m1 0h2m1 0h1m5 0h1m3 0h2m1 0h4m5 0h1m1 0h1m2 0h2M2 44.5h1m1 0h2m1 0h5m1 0h4m2 0h2m2 0h2m1 0h6m1 0h4m1 0h4m5 0h4m2 0h2m1 0h3M2 45.5h1m3 0h2m4 0h1m5 0h2m1 0h1m1 0h2m4 0h1m2 0h1m1 0h3m4 0h1m1 0h2m1 0h1m2 0h2m1 0h1m1 0h3m1 0h1M2 46.5h1m3 0h3m3 0h5m2 0h1m1 0h1m4 0h1m2 0h2m1 0h2m1 0h2m1 0h1m3 0h1m2 0h1m1 0h1m6 0h2m2 0h1M3 47.5h2m1 0h2m3 0h2m7 0h2m1 0h1m2 0h2m4 0h1m1 0h1m1 0h1m1 0h2m1 0h1m1 0h2m3 0h2m2 0h1m3 0h1M2 48.5h1m1 0h1m2 0h2m1 0h2m1 0h2m1 0h1m1 0h2m1 0h1m1 0h1m4 0h8m2 0h1m1 0h3m2 0h1m1 0h1m1 0h2m2 0h1m1 0h4M2 49.5h5m2 0h2m3 0h2m3 0h1m1 0h4m1 0h2m1 0h1m3 0h5m3 0h1m1 0h1m2 0h1m1 0h1m2 0h2m2 0h2M8 50.5h3m2 0h3m2 0h1m1 0h2m3 0h1m2 0h6m1 0h5m2 0h1m1 0h2m1 0h8m1 0h2M10 51.5h2m7 0h2m2 0h6m3 0h1m1 0h1m2 0h1m3 0h1m1 0h2m5 0h1m3 0h4M2 52.5h7m2 0h5m3 0h4m3 0h1m1 0h1m1 0h1m1 0h1m2 0h3m1 0h2m4 0h1m2 0h3m1 0h1m1 0h1m1 0h2M2 53.5h1m5 0h1m1 0h1m5 0h1m1 0h1m5 0h1m3 0h1m3 0h1m1 0h1m3 0h5m3 0h5m3 0h3m1 0h1M2 54.5h1m1 0h3m1 0h1m1 0h3m2 0h7m2 0h1m1 0h8m3 0h1m6 0h2m1 0h1m2 0h5m3 0h1M2 55.5h1m1 0h3m1 0h1m1 0h1m3 0h1m5 0h1m3 0h2m2 0h1m3 0h1m2 0h1m2 0h2m3 0h1m2 0h1m6 0h4M2 56.5h1m1 0h3m1 0h1m1 0h3m1 0h1m1 0h1m1 0h2m2 0h2m3 0h1m1 0h1m1 0h1m2 0h3m1 0h1m1 0h1m1 0h1m1 0h2m3 0h2m1 0h1m3 0h1M2 57.5h1m5 0h1m3 0h1m1 0h2m3 0h4m1 0h2m3 0h1m2 0h1m1 0h2m3 0h6m5 0h2m1 0h1m1 0h2M2 58.5h7m1 0h1m4 0h3m1 0h1m1 0h1m2 0h1m1 0h6m1 0h1m2 0h3m2 0h1m2 0h5m1 0h1m1 0h1m4 0h1"/></svg>
